<?xml version="1.0" encoding="UTF-8"?>
<svg version="1.1" xmlns="http://www.w3.org/2000/svg" width="1200" height="1200">
<path d="M0 0 C396 0 792 0 1200 0 C1200 396 1200 792 1200 1200 C804 1200 408 1200 0 1200 C0 804 0 408 0 0 Z " fill="#FEFEFE" transform="translate(0,0)"/>
<path d="M0 0 C1.69068604 0.26490234 1.69068604 0.26490234 3.41552734 0.53515625 C21.13691738 3.35429033 38.01592331 8.26819241 55 14 C56.41877441 14.47638916 56.41877441 14.47638916 57.86621094 14.96240234 C68.36563777 18.53314457 78.23844654 22.84140762 88.05273438 27.99267578 C90.0060532 29.00313133 91.97439321 29.97395757 93.953125 30.93359375 C114.199772 40.76618852 132.46910429 52.98814318 150.19140625 66.81640625 C152.60085646 68.68967839 155.03742001 70.51027665 157.5 72.3125 C160.61892993 74.64519968 163.30826336 77.17367653 166 80 C171.06201149 85.24109947 171.06201149 85.24109947 176.5625 90 C179.4695422 92.38526539 181.75198071 95.08206359 184.1875 97.9375 C185.84681749 99.82568887 187.56541186 101.56993365 189.375 103.3125 C193.99336631 107.86915095 197.97438898 112.92163873 202 118 C202.78375 118.97839844 203.5675 119.95679688 204.375 120.96484375 C215.52338899 135.13258809 225.1391258 150.31625267 234 166 C234.51723633 166.90468018 234.51723633 166.90468018 235.04492188 167.82763672 C254.77661685 202.53118798 266.90198467 242.5265524 272 282 C272.10296387 282.72670898 272.20592773 283.45341797 272.31201172 284.20214844 C283.05423433 361.62082068 261.5073765 445.24478571 217 509 C216.58218262 509.60328125 216.16436523 510.2065625 215.73388672 510.828125 C210.16292911 518.85339059 204.30263802 526.52866089 198 534 C196.80117187 535.47726562 196.80117187 535.47726562 195.578125 536.984375 C188.09306051 546.09136575 179.79526011 554.34810663 171.36083984 562.56542969 C165.8543613 567.95812457 160.75166761 573.50789578 155.96166992 579.55200195 C154.04653322 581.94193048 152.05316622 584.22825796 150 586.5 C147.14244491 589.67256116 144.42429385 592.92156233 141.75 596.25 C137.83649015 601.08116044 133.69109126 605.62643324 129.44458008 610.16088867 C125.52135538 614.3737516 121.8811089 618.7638625 118.27734375 623.25390625 C115.78173453 626.26319147 113.16233195 629.13937022 110.5 632 C106.21039593 636.60998943 102.19588878 641.37783516 98.24609375 646.28515625 C95.9116941 649.10673495 93.48009402 651.80590712 91 654.5 C86.91017995 658.94326129 83.0815502 663.53775807 79.29296875 668.23828125 C76.0972405 672.08730999 72.69481159 675.73246288 69.30078125 679.40625 C66.69457305 682.34431833 64.38372064 685.40559128 62.15625 688.63671875 C61.7746875 689.08660156 61.393125 689.53648437 61 690 C60.34 690 59.68 690 59 690 C58.63068359 690.84884766 58.63068359 690.84884766 58.25390625 691.71484375 C56.78463776 694.39248258 55.02247565 696.33043612 52.9375 698.5625 C49.70801662 702.08042208 46.61539482 705.65182375 43.625 709.375 C40.38048594 713.38824909 37.01266903 717.2242918 33.5 721 C28.41336962 726.46912374 23.68411718 732.18173634 19 738 C14.75796395 743.26136024 10.19709989 747.67839722 5 752 C3.89011719 752.9590625 3.89011719 752.9590625 2.7578125 753.9375 C-15.39752627 769.17607942 -38.14005504 777.92206701 -62 776 C-91.67873483 772.90831602 -114.1723837 755.15233426 -133 733 C-133.92643005 731.9252178 -134.85357577 730.85105226 -135.78125 729.77734375 C-140.42931308 724.38836065 -145.03995624 718.9841726 -149.5 713.4375 C-153.32819438 708.71467324 -157.39994501 704.27715486 -161.55200195 699.84228516 C-165.51774142 695.58356062 -169.21089046 691.15094539 -172.85546875 686.61328125 C-175.70809907 683.13712517 -178.73626144 679.83747883 -181.765625 676.515625 C-184.01181566 673.98669705 -186.13531218 671.38950086 -188.25 668.75 C-191.8464123 664.29699913 -195.64153663 660.10141946 -199.5625 655.9375 C-203.88776226 651.33990183 -207.96785414 646.66913436 -211.8515625 641.6875 C-218.31523183 633.60203728 -225.24944581 625.87209873 -232.25 618.25 C-236.17849191 613.96207946 -239.87100325 609.53216794 -243.52734375 605.01171875 C-250.34642616 596.70601174 -257.4424372 588.6283448 -264.75 580.75 C-268.13361517 577.09256626 -271.37402894 573.37975131 -274.5 569.5 C-280.31038477 562.29636133 -286.62776524 555.56697613 -292.98046875 548.84375 C-300.13644318 541.23596562 -306.67644544 533.31066172 -313 525 C-313.55042969 524.28457031 -314.10085938 523.56914063 -314.66796875 522.83203125 C-316.13539981 520.90422966 -317.57078717 518.9563235 -319 517 C-319.74765625 515.98808594 -320.4953125 514.97617187 -321.265625 513.93359375 C-327.3818306 505.57975196 -332.8770169 496.99421467 -338 488 C-338.70044434 486.77748535 -338.70044434 486.77748535 -339.41503906 485.53027344 C-382.58137804 409.74311804 -393.02999347 320.32437233 -370.625 236.25 C-364.21225275 213.12486639 -354.99374571 191.28055183 -344 170 C-343.42378906 168.87722656 -342.84757812 167.75445312 -342.25390625 166.59765625 C-337.96036427 158.41712015 -333.11318244 150.68093782 -328 143 C-327.3814917 142.05833984 -327.3814917 142.05833984 -326.75048828 141.09765625 C-314.33996534 122.24238716 -299.56262611 105.38684495 -283.625 89.4375 C-282.75617188 88.55642578 -281.88734375 87.67535156 -280.9921875 86.76757812 C-274.97799409 80.74003962 -268.6759595 75.27998239 -262 70 C-260.77324421 69.01065629 -259.54665249 68.02110907 -258.3203125 67.03125 C-208.74265972 27.57163975 -149.10841895 3.15044462 -86 -3 C-85.12166504 -3.0935376 -84.24333008 -3.1870752 -83.33837891 -3.28344727 C-55.61424063 -5.97353614 -27.42132984 -4.53331962 0 0 Z " fill="#E67742" transform="translate(654,214)"/>
<path d="M0 0 C0.89900528 -0.00570007 1.79801056 -0.01140015 2.72425842 -0.01727295 C4.61930183 -0.02666333 6.51436112 -0.033233 8.40942383 -0.03710938 C11.24656302 -0.04674394 14.08295419 -0.07779557 16.91992188 -0.109375 C28.72812709 -0.17751214 39.77674712 0.89533717 51.34765625 3.203125 C53.03702805 3.49130587 54.72698017 3.7761504 56.41796875 4.0546875 C95.13451387 11.16164873 130.2344223 32.25189271 158.34765625 59.203125 C158.88277832 59.71101563 159.41790039 60.21890625 159.96923828 60.7421875 C167.9318985 68.33324133 174.99082763 76.2219413 181.34765625 85.203125 C181.95988037 86.06478271 181.95988037 86.06478271 182.58447266 86.94384766 C189.60970877 96.92938615 195.67169344 107.40065331 201.34765625 118.203125 C201.90195312 119.255 202.45625 120.306875 203.02734375 121.390625 C214.40851592 144.52208843 221.41919045 171.84729343 221.55078125 197.65234375 C221.55648132 198.54564896 221.5621814 199.43895416 221.5680542 200.35932922 C221.57745842 202.24776038 221.58401986 204.1362076 221.58789062 206.0246582 C221.59747597 208.83771739 221.62849244 211.65000613 221.66015625 214.46289062 C221.84976099 246.86006814 213.8277607 278.76363391 198.37744141 307.29980469 C197.32197343 309.25059377 196.29416325 311.21459019 195.265625 313.1796875 C189.89210068 323.25978766 183.47503608 332.29215615 176.34765625 341.203125 C175.88601074 341.78191406 175.42436523 342.36070312 174.94873047 342.95703125 C164.12609739 356.4043966 152.09896057 367.80283297 138.34765625 378.203125 C137.18556641 379.16605469 137.18556641 379.16605469 136 380.1484375 C112.55045825 398.31406189 83.35646967 410.44290524 54.41015625 416.390625 C53.66056641 416.54563477 52.91097656 416.70064453 52.13867188 416.86035156 C38.18500042 419.55821812 24.28321801 420.59060113 10.09765625 420.515625 C9.33630371 420.51313751 8.57495117 420.51065002 7.79052734 420.50808716 C-30.28470331 420.31669689 -65.8143664 409.17617858 -98.65234375 390.203125 C-98.65234375 389.543125 -98.65234375 388.883125 -98.65234375 388.203125 C-99.20019531 388.10773438 -99.74804688 388.01234375 -100.3125 387.9140625 C-110.49717603 384.81955326 -119.80394774 375.18281424 -127.65234375 368.203125 C-128.21131348 367.70731934 -128.7702832 367.21151367 -129.34619141 366.70068359 C-145.71114649 352.1023731 -159.85070264 335.39807072 -170.54443359 316.19140625 C-171.30627269 314.82419214 -172.07801635 313.46246502 -172.85791016 312.10546875 C-180.52010953 298.73623129 -185.8844231 284.83499072 -190.65234375 270.203125 C-191.00401611 269.13698975 -191.00401611 269.13698975 -191.36279297 268.04931641 C-192.7247841 263.81880517 -193.76152895 259.55269001 -194.65234375 255.203125 C-194.8313623 254.36491211 -195.01038086 253.52669922 -195.19482422 252.66308594 C-204.26130497 208.60840565 -198.72042547 161.87924528 -179.65234375 121.203125 C-179.32621094 120.49865234 -179.00007813 119.79417969 -178.6640625 119.06835938 C-165.44213928 90.75447998 -145.17339363 65.50763717 -120.65234375 46.203125 C-119.22535156 45.03330078 -119.22535156 45.03330078 -117.76953125 43.83984375 C-85.11697992 17.65934543 -42.10603126 0.21362699 0 0 Z " fill="#FEFEFE" transform="translate(588.65234375,328.796875)"/>
<path d="M0 0 C1.36646079 0.00387584 2.73291765 0.00945275 4.09936523 0.01660156 C5.13611893 0.01883728 5.13611893 0.01883728 6.19381714 0.02111816 C48.51651417 0.18438278 92.51694352 9.00633567 131.22436523 26.32910156 C132.12155273 26.72355469 133.01874023 27.11800781 133.94311523 27.52441406 C136.04106522 28.45036113 138.13474384 29.38455048 140.22436523 30.32910156 C137.04515762 32.88427373 133.63139853 34.91778202 130.13354492 36.99487305 C121.33217955 42.23338858 113.12421879 47.78955136 105.22436523 54.32910156 C104.35835693 55.04283936 104.35835693 55.04283936 103.47485352 55.77099609 C62.83847454 89.45367351 34.41993936 138.8965198 28.69702148 191.81738281 C26.06282447 222.91290395 28.24846569 253.64068778 38.22436523 283.32910156 C38.5129541 284.18810059 38.80154297 285.04709961 39.09887695 285.93212891 C47.20165032 309.51299614 59.15099789 331.2437879 75.22436523 350.32910156 C76.10362836 351.4056331 76.98250968 352.48247654 77.86108398 353.55957031 C87.64643595 365.41121831 98.68339156 376.38629316 111.22436523 385.32910156 C111.74836914 385.70437988 112.27237305 386.0796582 112.81225586 386.46630859 C114.56929145 387.71999589 116.33251545 388.96428812 118.09936523 390.20410156 C118.93975342 390.7954187 118.93975342 390.7954187 119.79711914 391.39868164 C122.27040186 393.10728336 124.35355648 394.37216531 127.22436523 395.32910156 C127.22436523 395.98910156 127.22436523 396.64910156 127.22436523 397.32910156 C128.36905273 397.63847656 128.36905273 397.63847656 129.53686523 397.95410156 C132.66240921 399.11955864 135.26708026 400.39638609 138.16186523 402.01660156 C154.68091225 411.16663973 171.53901407 417.07412998 189.84936523 421.57910156 C191.33122314 421.94853882 191.33122314 421.94853882 192.84301758 422.32543945 C206.9115383 425.65891199 220.81570467 426.71610198 235.22436523 426.64160156 C236.36139389 426.63836884 236.36139389 426.63836884 237.52139282 426.6350708 C266.83471215 426.50229417 294.34770624 421.19401389 321.22436523 409.32910156 C322.18487793 408.91096191 322.18487793 408.91096191 323.16479492 408.484375 C331.99484904 404.62212369 340.82160264 400.41819475 348.78686523 394.95410156 C351.22436523 393.32910156 351.22436523 393.32910156 353.22436523 393.32910156 C353.64748229 402.18433703 352.0854468 410.6998187 350.59936523 419.39160156 C350.46331879 420.19343872 350.32727234 420.99527588 350.18710327 421.82141113 C346.83176913 441.47104545 342.10418601 460.2804175 335.66186523 479.14160156 C335.4302066 479.82073608 335.19854797 480.49987061 334.95986938 481.19958496 C332.12637789 489.45081656 328.98467159 497.45377023 325.22436523 505.32910156 C324.7824585 506.28147705 324.34055176 507.23385254 323.88525391 508.21508789 C307.71854406 543.04335265 287.11350543 573.86580143 261.72290039 602.63085938 C260.34722085 604.1898732 258.97879021 605.75527566 257.61108398 607.32128906 C253.70872875 611.74177213 249.83437404 615.6620491 245.22436523 619.32910156 C243.5534196 620.99147825 241.88743867 622.65884939 240.22436523 624.32910156 C238.18284166 626.28959112 236.11378095 628.21872162 234.03686523 630.14160156 C233.50383789 630.64369141 232.97081055 631.14578125 232.42163086 631.66308594 C228.45634865 635.32910156 228.45634865 635.32910156 226.22436523 635.32910156 C226.22436523 635.98910156 226.22436523 636.64910156 226.22436523 637.32910156 C224.85424805 638.62255859 224.85424805 638.62255859 222.92749023 640.08691406 C222.22100342 640.62678955 221.5145166 641.16666504 220.78662109 641.72290039 C220.02357666 642.29419678 219.26053223 642.86549316 218.47436523 643.45410156 C217.32303101 644.3255481 217.32303101 644.3255481 216.1484375 645.21459961 C209.99656511 649.8350771 203.71252016 654.19118387 197.22436523 658.32910156 C181.47700555 650.5620286 169.49207217 638.58654246 158.22436523 625.32910156 C157.29793518 624.25431936 156.37078946 623.18015382 155.44311523 622.10644531 C150.79505215 616.71746221 146.18440899 611.31327416 141.72436523 605.76660156 C137.89617086 601.0437748 133.82442023 596.60625642 129.67236328 592.17138672 C125.70662381 587.91266219 122.01347477 583.48004695 118.36889648 578.94238281 C115.51626616 575.46622674 112.48810379 572.1665804 109.45874023 568.84472656 C107.21254957 566.31579861 105.08905306 563.71860242 102.97436523 561.07910156 C99.37795294 556.6261007 95.58282861 552.43052102 91.66186523 548.26660156 C87.33660297 543.6690034 83.2565111 538.99823592 79.37280273 534.01660156 C72.90913341 525.93113884 65.97491943 518.20120029 58.97436523 510.57910156 C55.04587333 506.29118102 51.35336199 501.86126951 47.69702148 497.34082031 C40.87793907 489.0351133 33.78192803 480.95744636 26.47436523 473.07910156 C23.09075007 469.42166783 19.85033629 465.70885287 16.72436523 461.82910156 C10.91398046 454.62546289 4.59659999 447.8960777 -1.75610352 441.17285156 C-8.91207795 433.56506719 -15.45208021 425.63976328 -21.77563477 417.32910156 C-22.32606445 416.61367188 -22.87649414 415.89824219 -23.44360352 415.16113281 C-24.91103458 413.23333122 -26.34642194 411.28542506 -27.77563477 409.32910156 C-28.89711914 407.81123047 -28.89711914 407.81123047 -30.04125977 406.26269531 C-36.15746536 397.90885352 -41.65265167 389.32331623 -46.77563477 380.32910156 C-47.4760791 379.10658691 -47.4760791 379.10658691 -48.19067383 377.859375 C-91.3570128 302.0722196 -101.80562824 212.65347389 -79.40063477 128.57910156 C-72.98788752 105.45396795 -63.76938048 83.60965339 -52.77563477 62.32910156 C-52.19942383 61.20632813 -51.62321289 60.08355469 -51.02954102 58.92675781 C-46.73599904 50.74622171 -41.88881721 43.01003938 -36.77563477 35.32910156 C-36.3632959 34.70132813 -35.95095703 34.07355469 -35.52612305 33.42675781 C-13.59162159 0.10173763 -13.59162159 0.10173763 0 0 Z " fill="#F7C201" transform="translate(362.775634765625,321.6708984375)"/>
<path d="M0 0 C19.61176492 14.35007189 29.37859012 45.97424824 33 69 C33.88657313 76.33070684 34.05771145 83.48399444 33.81640625 90.85546875 C33.77457376 92.87951461 33.73492442 94.90360656 33.69726562 96.92773438 C33.63549052 100.06891252 33.56179557 103.20753834 33.45141602 106.34741211 C33.34804322 109.41302432 33.29659677 112.47598675 33.25390625 115.54296875 C33.18726524 116.9385627 33.18726524 116.9385627 33.11927795 118.36235046 C33.09551821 123.84879018 33.95141121 126.54218697 37.86279297 130.49487305 C39.2184942 131.69028393 40.5959623 132.86175085 42 134 C42.97066406 134.83789062 43.94132813 135.67578125 44.94140625 136.5390625 C46.23884766 137.57160156 46.23884766 137.57160156 47.5625 138.625 C48.48804688 139.37136719 49.41359375 140.11773438 50.3671875 140.88671875 C51.67042969 141.93279297 51.67042969 141.93279297 53 143 C55.40171791 144.94879879 57.71186843 146.91525791 60 149 C60 149.66 60 150.32 60 151 C60.56203125 151.24363281 61.1240625 151.48726562 61.703125 151.73828125 C64.44019785 153.24180936 66.45795941 155.06699748 68.75 157.1875 C71.74271743 159.93191336 74.73687703 162.66132606 77.8125 165.3125 C119.17350242 201.38801935 119.17350242 201.38801935 121.4375 219.5 C121 223 121 223 118.8125 226 C116 228 116 228 113.7734375 227.90625 C110.05022834 226.68965208 107.0331544 224.67091362 103.8125 222.5 C102.29821186 221.49994733 100.78388641 220.49995117 99.26953125 219.5 C98.01970459 218.66855469 98.01970459 218.66855469 96.74462891 217.8203125 C92.07722746 214.72476498 87.38410095 211.66856207 82.69448853 208.60681152 C80.99325539 207.49559453 79.29276628 206.3832483 77.5925293 205.27050781 C70.79479479 200.82186049 63.9875769 196.38851189 57.16186523 191.98291016 C53.2989329 189.48930621 49.44185514 186.98701363 45.58984375 184.4765625 C44.67122559 183.87811523 43.75260742 183.27966797 42.80615234 182.66308594 C41.01034209 181.49272517 39.215073 180.32153354 37.42041016 179.14941406 C36.61265137 178.6231543 35.80489258 178.09689453 34.97265625 177.5546875 C34.25343994 177.08530762 33.53422363 176.61592773 32.79321289 176.13232422 C31.00103596 174.95909633 31.00103596 174.95909633 29 174 C28.85304688 175.20785156 28.70609375 176.41570312 28.5546875 177.66015625 C27.32639675 187.48931675 25.97742375 197.28664693 24.4296875 207.0703125 C24.29227142 207.94286179 24.15485535 208.81541107 24.01327515 209.71440125 C23.31738893 214.12591236 22.61201459 218.53563375 21.89404297 222.94360352 C21.63219499 224.59126222 21.37062673 226.2389654 21.109375 227.88671875 C20.98247284 228.64626862 20.85557068 229.40581848 20.724823 230.18838501 C19.86145169 235.18977181 19.86145169 235.18977181 21 240 C22.34164289 241.84144196 22.34164289 241.84144196 24.0546875 243.56640625 C24.66957031 244.21673828 25.28445313 244.86707031 25.91796875 245.53710938 C26.56378906 246.20548828 27.20960938 246.87386719 27.875 247.5625 C28.83212891 248.57086914 28.83212891 248.57086914 29.80859375 249.59960938 C33.1878928 253.16509973 33.1878928 253.16509973 36.70751953 256.58959961 C38 258 38 258 38 260 C38.66 260 39.32 260 40 260 C41.375 261.36328125 41.375 261.36328125 43 263.3125 C46.08017086 266.93967795 49.22869449 270.48708828 52.4375 274 C53.30246094 274.94875 54.16742187 275.8975 55.05859375 276.875 C55.69925781 277.57625 56.33992187 278.2775 57 279 C53.59555384 280.70222308 49.9834343 278.93081954 46.44140625 278.015625 C45.58248276 277.79936462 44.72355927 277.58310425 43.83860779 277.36029053 C41.07819294 276.66343369 38.32040341 275.95672326 35.5625 275.25 C33.73778736 274.78844076 31.91291916 274.32749607 30.08789062 273.8671875 C28.30983137 273.41692115 26.5318356 272.96640402 24.75390625 272.515625 C23.88657867 272.29636353 23.0192511 272.07710205 22.12564087 271.85119629 C17.63809018 270.70755336 13.20627275 269.46546904 8.77734375 268.109375 C-0.50410946 265.5935199 -9.5725473 268.97799045 -18.625 271.3125 C-19.86523926 271.62719238 -21.10547852 271.94188477 -22.38330078 272.26611328 C-29.97982589 274.20033531 -37.56291315 276.18008437 -45.1171875 278.2734375 C-48.06413113 279.01616313 -50.99662778 279.5427702 -54 280 C-49.87101282 275.08985308 -45.58729826 270.33777103 -41.24316406 265.6184082 C-37.55478561 261.61062763 -33.89345126 257.58072035 -30.28125 253.50390625 C-28.63765137 251.69988789 -26.94321217 249.94172792 -25.21875 248.21484375 C-24.3009375 247.27769531 -23.383125 246.34054687 -22.4375 245.375 C-21.59058594 244.53710938 -20.74367188 243.69921875 -19.87109375 242.8359375 C-15.52045681 236.24186147 -18.7426696 226.37177342 -19.96875 219.0390625 C-20.1685144 217.81214691 -20.36827881 216.58523132 -20.57409668 215.32113647 C-21.10228822 212.08259828 -21.63572992 208.84498688 -22.17205811 205.60778809 C-22.92957098 201.02774653 -23.67749469 196.44613018 -24.42590332 191.86459351 C-24.82429614 189.42918745 -25.22487229 186.99413738 -25.62780762 184.55947876 C-25.80799438 183.46428925 -25.98818115 182.36909973 -26.17382812 181.24072266 C-26.33371216 180.27445953 -26.49359619 179.30819641 -26.6583252 178.31265259 C-27 176 -27 176 -27 174 C-28.58451811 174.99812164 -30.16751704 175.99865485 -31.75 177 C-32.63171875 177.556875 -33.5134375 178.11375 -34.421875 178.6875 C-37.44079777 180.62117719 -40.42155961 182.60967245 -43.40234375 184.6015625 C-48.13568881 187.76395504 -52.88367006 190.90263633 -57.64453125 194.0234375 C-58.30921417 194.45916077 -58.97389709 194.89488403 -59.65872192 195.34381104 C-62.39067291 197.13408368 -65.12312102 198.92359639 -67.85571289 200.71289062 C-75.28534119 205.57870497 -82.70760801 210.45509136 -90.1015625 215.375 C-90.99842522 215.97071304 -90.99842522 215.97071304 -91.91340637 216.57846069 C-96.78291821 219.8253734 -101.56144826 223.18878414 -106.31640625 226.6015625 C-109.4776311 228.24889655 -111.48151034 228.381046 -115 228 C-117.26121822 226.26639936 -117.84257708 224.8588295 -118.3515625 222.08203125 C-119.08928474 211.11326641 -111.77421084 202.84121108 -105 195 C-104.37867188 194.2678125 -103.75734375 193.535625 -103.1171875 192.78125 C-97.96969464 186.88686602 -92.45732162 181.3559058 -86.9375 175.8125 C-86.18162598 175.05195312 -85.42575195 174.29140625 -84.64697266 173.5078125 C-80.47959186 169.35221677 -76.22603352 165.36153218 -71.76635742 161.52124023 C-69.53383192 159.598522 -67.36200334 157.61289973 -65.1875 155.625 C-61.64839998 152.42347567 -58.02896894 149.36853937 -54.3125 146.375 C-50.54362837 143.3260252 -47.06294093 140.18027402 -43.69140625 136.703125 C-35.56685714 128.52228571 -35.56685714 128.52228571 -31 127 C-31.2165625 125.41638672 -31.2165625 125.41638672 -31.4375 123.80078125 C-36.60740964 83.63279112 -31.04099409 40.18571284 -6.0625 7.0625 C-4.1203855 4.57234613 -2.23159798 2.23159798 0 0 Z " fill="#8E5343" transform="translate(599,392)"/>
<path d="M0 0 C2 4.75 2 4.75 2 7 C2.70125 7.226875 3.4025 7.45375 4.125 7.6875 C10.3288825 10.51970723 15.02675622 15.34949901 18.25 21.3125 C20.1459989 28.10649604 19.05309114 32.89381772 16 39 C12.73045798 38.43628586 11.17424117 37.50037734 9 35 C8.21625 35.495 7.4325 35.99 6.625 36.5 C1.93130146 38.44222008 -1.98515302 38.72690779 -7 38 C-11.85113998 35.66426593 -14.76436171 32.90120703 -17 28 C-17.7885218 22.14872608 -18.38681345 16.90191559 -14.8125 12 C-13.884375 11.34 -12.95625 10.68 -12 10 C-11.175 9.175 -10.35 8.35 -9.5 7.5 C-8.675 6.675 -7.85 5.85 -7 5 C-6.113125 4.071875 -5.22625 3.14375 -4.3125 2.1875 C-2 0 -2 0 0 0 Z " fill="#F7C303" transform="translate(423,752)"/>
<path d="M0 0 C2.55203153 1.33928927 4.47792982 2.4838672 5.71069336 5.15332031 C5.828125 7.2421875 5.828125 7.2421875 4.56469727 9.07324219 C3.61421509 9.98444824 3.61421509 9.98444824 2.64453125 10.9140625 C1.62456055 11.90986328 1.62456055 11.90986328 0.58398438 12.92578125 C-0.13982422 13.60769531 -0.86363281 14.28960937 -1.609375 14.9921875 C-2.32931641 15.68957031 -3.04925781 16.38695312 -3.79101562 17.10546875 C-5.57398961 18.82940386 -7.36755326 20.54065359 -9.171875 22.2421875 C-11.646875 21.2521875 -11.646875 21.2521875 -14.171875 20.2421875 C-14.171875 20.9021875 -14.171875 21.5621875 -14.171875 22.2421875 C-10.2740599 23.5414592 -6.22730746 23.81677649 -2.171875 23.2421875 C0.43127494 21.8891747 0.43127494 21.8891747 1.828125 19.2421875 C2.21044981 17.27842338 2.21044981 17.27842338 2.390625 15.1796875 C2.828125 11.2421875 2.828125 11.2421875 4.265625 9.2421875 C5.828125 8.2421875 5.828125 8.2421875 7.828125 8.2421875 C9.56833428 11.72260606 9.28277052 15.43686682 8.828125 19.2421875 C7.24292958 23.53782069 4.82897447 26.91911361 0.828125 29.2421875 C-4.27545228 30.94337993 -9.59177287 31.51304772 -14.53515625 29.078125 C-18.32896787 26.3732136 -21.31014323 23.98171224 -22.171875 19.2421875 C-22.68408855 14.32658975 -23.03272576 9.9149232 -20.296875 5.6171875 C-19.595625 4.8334375 -18.894375 4.0496875 -18.171875 3.2421875 C-17.511875 3.2421875 -16.851875 3.2421875 -16.171875 3.2421875 C-16.171875 2.5821875 -16.171875 1.9221875 -16.171875 1.2421875 C-11.16010015 -1.63814288 -5.46685709 -1.90750049 0 0 Z " fill="#EB8C5E" transform="translate(831.171875,356.7578125)"/>
<path d="M0 0 C1.7265625 1.00390625 1.7265625 1.00390625 3.625 2.5625 C6.62084276 4.93259372 9.64114894 7.18102099 12.8125 9.3125 C13.90498047 10.04919922 13.90498047 10.04919922 15.01953125 10.80078125 C17.08476314 12.15096722 17.08476314 12.15096722 20 13 C20 13.66 20 14.32 20 15 C21.32 15.66 22.64 16.32 24 17 C19.55935098 26.54739539 19.55935098 26.54739539 14.6875 29.3125 C8.50567688 30.89389661 3.66986862 30.07607922 -1.9765625 27.3203125 C-5.29908261 25.15233606 -6.88448553 22.78531243 -8 19 C-8.92646554 12.91333684 -7.76580901 8.41637597 -5 3 C-4.34 3 -3.68 3 -3 3 C-3 2.34 -3 1.68 -3 1 C-2.01 0.67 -1.02 0.34 0 0 Z " fill="#F9CC28" transform="translate(470,704)"/>
<path d="M0 0 C3.08073848 1.3831887 4.6384567 2.6384567 7 5 C6.49335566 9.86663128 2.98470663 12.52961349 -0.3125 15.8125 C-0.89451172 16.42287109 -1.47652344 17.03324219 -2.07617188 17.66210938 C-2.92985352 18.5196582 -2.92985352 18.5196582 -3.80078125 19.39453125 C-4.31809814 19.91893799 -4.83541504 20.44334473 -5.3684082 20.98364258 C-7 22 -7 22 -9.19995117 21.6628418 C-10.09097534 21.33473511 -10.09097534 21.33473511 -11 21 C-11.33 19.68 -11.66 18.36 -12 17 C-11.01 16.67 -10.02 16.34 -9 16 C-8.566875 15.1028125 -8.566875 15.1028125 -8.125 14.1875 C-6.64655133 11.3127387 -4.53760281 9.95200216 -2 8 C-1.67 7.34 -1.34 6.68 -1 6 C-4.96 6.66 -8.92 7.32 -13 8 C-13 8.99 -13 9.98 -13 11 C-13.66 11 -14.32 11 -15 11 C-14.34 14.96 -13.68 18.92 -13 23 C-8.51127079 24.1221823 -4.38662465 24.74692512 0.109375 23.33984375 C2.81510394 21.42235403 3.01042338 19.55517946 3.75 16.375 C3.99234375 15.37210937 4.2346875 14.36921875 4.484375 13.3359375 C4.65453125 12.56507813 4.8246875 11.79421875 5 11 C5.66 11 6.32 11 7 11 C7 10.34 7 9.68 7 9 C7.99 9 8.98 9 10 9 C10.86015976 21.71124973 10.86015976 21.71124973 7.8125 26.1875 C3.58310698 30.41689302 0.83734779 31.08568947 -5 31.25 C-8.73907457 31.1830315 -11.64390677 30.78991639 -15 29 C-15 28.34 -15 27.68 -15 27 C-15.66 27 -16.32 27 -17 27 C-20.30328914 21.45519323 -21.82282315 17.47973231 -21 11 C-19.56100805 7.0306458 -17.48611806 4.46240499 -14.4375 1.5625 C-9.58360247 -0.64381706 -5.25081492 -0.68036474 0 0 Z " fill="#EB8C5E" transform="translate(805,381)"/>
<path d="M0 0 C0.66 1.65 1.32 3.3 2 5 C-1.15445333 8.87547124 -4.31152546 12.61059096 -8 16 C-8.66 16 -9.32 16 -10 16 C-10.33 19.63 -10.66 23.26 -11 27 C-10.01 27.33 -9.02 27.66 -8 28 C-7.608125 28.515625 -7.21625 29.03125 -6.8125 29.5625 C-4.32103173 31.53849208 -2.03611967 31.46786979 1.06640625 31.37109375 C3.93629939 30.82030618 5.20466364 29.20964475 7 27 C7.66 27 8.32 27 9 27 C9 26.34 9 25.68 9 25 C9.66 25 10.32 25 11 25 C11.48877805 31.35411471 11.48877805 31.35411471 9.25 34.3125 C3.98870562 38.25847079 -0.52026412 38.82021973 -7 38 C-11.85113998 35.66426593 -14.76436171 32.90120703 -17 28 C-17.7885218 22.14872608 -18.38681345 16.90191559 -14.8125 12 C-13.884375 11.34 -12.95625 10.68 -12 10 C-11.175 9.175 -10.35 8.35 -9.5 7.5 C-8.675 6.675 -7.85 5.85 -7 5 C-6.113125 4.071875 -5.22625 3.14375 -4.3125 2.1875 C-2 0 -2 0 0 0 Z " fill="#F9CC27" transform="translate(423,752)"/>
<path d="M0 0 C3.83215739 1.37847388 6.92743511 3.15231942 10.25 5.5 C11.12140625 6.1084375 11.9928125 6.716875 12.890625 7.34375 C15 9 15 9 16 11 C15.67 11.99 15.34 12.98 15 14 C14.34 14 13.68 14 13 14 C13 14.99 13 15.98 13 17 C9.54422178 19.10718184 7.4664468 20.00804219 3.375 19.9375 C-0.39816893 18.88939752 -1.79800271 18.21830373 -4 15 C-5.185143 10.34408106 -5.35363241 7.23653834 -3 3 C-1.375 1.1875 -1.375 1.1875 0 0 Z " fill="#F7C207" transform="translate(473,708)"/>
<path d="M0 0 C3.45702841 1.92795815 4.93959802 3.65495063 7.25 6.8125 C8.1575 7.534375 9.065 8.25625 10 9 C10.7425 9.598125 11.485 10.19625 12.25 10.8125 C12.25 11.4725 12.25 12.1325 12.25 12.8125 C12.91 12.8125 13.57 12.8125 14.25 12.8125 C14.25 13.8025 14.25 14.7925 14.25 15.8125 C13.59 15.8125 12.93 15.8125 12.25 15.8125 C12.25 16.4725 12.25 17.1325 12.25 17.8125 C11.26 17.8125 10.27 17.8125 9.25 17.8125 C9.25 17.1525 9.25 16.4925 9.25 15.8125 C8.67765625 15.56628906 8.1053125 15.32007813 7.515625 15.06640625 C4.89335546 13.61511569 3.12616275 11.85704258 1 9.75 C-3.30693526 5.80019039 -5.95726287 4.8125 -11.75 4.8125 C-12.08 5.8025 -12.41 6.7925 -12.75 7.8125 C-13.74 8.1425 -14.73 8.4725 -15.75 8.8125 C-17.07 7.1625 -18.39 5.5125 -19.75 3.8125 C-19.09 3.8125 -18.43 3.8125 -17.75 3.8125 C-17.75 3.1525 -17.75 2.4925 -17.75 1.8125 C-11.57652756 -1.89158346 -6.67630117 -2.11416204 0 0 Z " fill="#F9CC28" transform="translate(403.75,784.1875)"/>
<path d="M0 0 C1.32 0.33 2.64 0.66 4 1 C5.125 4.75 5.125 4.75 4 7 C3.42742377 10.57860141 3.32003164 12.98866677 5.38671875 16.0625 C7.67155292 18.67940334 10.0507048 21.13115354 12.61328125 23.4765625 C14 24.75 14 24.75 16 27 C15.8125 29.3125 15.8125 29.3125 15 31 C13.68 31.33 12.36 31.66 11 32 C9.99406757 30.8803014 8.9954151 29.7540588 8 28.625 C7.1646875 27.68527344 7.1646875 27.68527344 6.3125 26.7265625 C5 25 5 25 5 23 C4.01 23 3.02 23 2 23 C-1.31840731 19.7289985 -3.79898946 16.00136582 -4.26953125 11.31640625 C-3.89508292 6.56161895 -3.10674293 3.6993097 0 0 Z " fill="#EB8B5E" transform="translate(773,400)"/>
<path d="M0 0 C7.25461409 2.34708103 12.66498769 7.68022722 16.25 14.3125 C18.1459989 21.10649604 17.05309114 25.89381772 14 32 C12.68 31.67 11.36 31.34 10 31 C9.67 29.68 9.34 28.36 9 27 C9.66 27 10.32 27 11 27 C11.26294367 22.05665906 10.94297727 18.33666559 8.03515625 14.21484375 C5.76452468 11.71604499 3.43996195 9.33294608 1 7 C-0.0010923 6.00109349 -1.0016116 5.00160901 -2 4 C-1.34 2.68 -0.68 1.36 0 0 Z " fill="#F9CC27" transform="translate(425,759)"/>
<path d="M0 0 C1.32 0.66 2.64 1.32 4 2 C3.835 2.66 3.67 3.32 3.5 4 C2.74347091 8.53917456 2.33326855 12.99980565 3.8125 17.4375 C5.00860209 19.31617939 5.00860209 19.31617939 8 20 C8 20.66 8 21.32 8 22 C8.598125 22.268125 9.19625 22.53625 9.8125 22.8125 C12.07573361 24.04111253 13.51540577 24.89031346 15 27 C14.6875 29.6875 14.6875 29.6875 14 32 C11.625 31.6875 11.625 31.6875 9 31 C8.34 30.01 7.68 29.02 7 28 C6.01 27.67 5.02 27.34 4 27 C4 26.34 4 25.68 4 25 C3.34 25 2.68 25 2 25 C-1.3258321 20.79532108 -4.39511762 16.17284848 -4.5 10.6875 C-3.88906113 6.18182584 -3.23846178 3.23846178 0 0 Z " fill="#F9CC28" transform="translate(452,721)"/>
<path d="M0 0 C2.93879484 1.35236577 5.29232911 2.89942659 7.75 5 C8.67039062 5.7734375 8.67039062 5.7734375 9.609375 6.5625 C11 8 11 8 11 10 C11.928125 10.433125 11.928125 10.433125 12.875 10.875 C15 12 15 12 17 14 C17 15.32 17 16.64 17 18 C16.34 18 15.68 18 15 18 C15 18.66 15 19.32 15 20 C11.15933963 18.43528652 8.86966685 15.93965873 6 13 C4.6078125 11.9171875 4.6078125 11.9171875 3.1875 10.8125 C2.465625 10.214375 1.74375 9.61625 1 9 C1 8.34 1 7.68 1 7 C0.34 7 -0.32 7 -1 7 C-1.625 4.625 -1.625 4.625 -2 2 C-1.34 1.34 -0.68 0.68 0 0 Z " fill="#F9CB26" transform="translate(437,747)"/>
<path d="M0 0 C1.65 0.33 3.3 0.66 5 1 C5 2.32 5 3.64 5 5 C4.34 5 3.68 5 3 5 C2.67 5.99 2.34 6.98 2 8 C0.56249952 9.24147769 -0.88016789 10.4784426 -2.3671875 11.66015625 C-4.75096965 13.61622629 -6.85251622 15.78935494 -9 18 C-10.32 17.34 -11.64 16.68 -13 16 C-13 14.68 -13 13.36 -13 12 C-10.8125 10.0625 -10.8125 10.0625 -8 8 C-7.13375 7.113125 -6.2675 6.22625 -5.375 5.3125 C-3 3 -3 3 0 2 C0 1.34 0 0.68 0 0 Z " fill="#F9CB27" transform="translate(437,736)"/>
<path d="M0 0 C0.33 0 0.66 0 1 0 C1.33 6.93 1.66 13.86 2 21 C2.33 21 2.66 21 3 21 C3 29.25 3 37.5 3 46 C2.01 46 1.02 46 0 46 C-0.33 47.32 -0.66 48.64 -1 50 C-1.19958724 48.50156042 -1.38390687 47.00108652 -1.5625 45.5 C-1.66691406 44.6646875 -1.77132812 43.829375 -1.87890625 42.96875 C-2.0021279 39.94783223 -1.63844288 37.14923397 -1.2469635 34.1595459 C-0.86846673 30.84982144 -0.77754845 27.54743087 -0.68359375 24.21875 C-0.66281265 23.51979614 -0.64203156 22.82084229 -0.62062073 22.10070801 C-0.55601465 19.90055741 -0.49666091 17.70030304 -0.4375 15.5 C-0.39422983 13.99478158 -0.35061307 12.48957307 -0.30664062 10.984375 C-0.20042681 7.32302256 -0.09891804 3.66155766 0 0 Z " fill="#E57D4C" transform="translate(810,528)"/>
<path d="M0 0 C-0.33 1.32 -0.66 2.64 -1 4 C-1.66 4 -2.32 4 -3 4 C-3 5.98 -3 7.96 -3 10 C-3.66 10 -4.32 10 -5 10 C-5.33 9.34 -5.66 8.68 -6 8 C-6.66 9.65 -7.32 11.3 -8 13 C-8.99 13 -9.98 13 -11 13 C-12.50552034 14.438348 -12.50552034 14.438348 -13.875 16.3125 C-16.29926722 19.30647002 -18.50798385 21.25399192 -22 23 C-21.67 23.99 -21.34 24.98 -21 26 C-21.7425 26.28875 -22.485 26.5775 -23.25 26.875 C-25.56900199 27.82368263 -27.76932676 28.86559779 -30 30 C-25.44936641 23.3218604 -19.97325603 17.66388769 -14.2578125 11.99707031 C-12.73193405 10.48206276 -11.2172268 8.95645553 -9.703125 7.4296875 C-8.73501688 6.46289849 -7.76628987 5.49672871 -6.796875 4.53125 C-5.92385742 3.66048828 -5.05083984 2.78972656 -4.15136719 1.89257812 C-2 0 -2 0 0 0 Z " fill="#F7F4EE" transform="translate(840,763)"/>
<path d="M0 0 C1.41891872 0.0961203 2.83720294 0.21198495 4.25 0.375 C3.04460738 5.34724455 -0.06940707 7.63451825 -3.875 10.7265625 C-5.97049915 12.42556095 -5.97049915 12.42556095 -7.75 15.375 C-8.75 14.375 -8.75 14.375 -9.0625 10.6875 C-8.92357396 4.26217065 -6.82043462 0.02148168 0 0 Z " fill="#E67742" transform="translate(823.75,361.625)"/>
<path d="M0 0 C0.66 0.33 1.32 0.66 2 1 C0.375 8.75 0.375 8.75 -3 11 C-3.99 10.67 -4.98 10.34 -6 10 C-7.08168513 12.01914558 -7.95868133 13.8295605 -8.5 16.0625 C-9 18 -9 18 -11 21 C-13.62356462 21.98515378 -16.24524123 22.42238929 -19 23 C-14.84154221 17.10039932 -10.18268557 11.79858664 -5.26953125 6.515625 C-3.37212256 4.4124732 -1.64909116 2.29905868 0 0 Z " fill="#F7F5F0" transform="translate(774,834)"/>
<path d="M0 0 C4.64329406 1.30999877 7.88002435 3.11729032 11.6875 6.0625 C12.72261719 6.86171875 13.75773438 7.6609375 14.82421875 8.484375 C27.48318536 18.47482057 27.48318536 18.47482057 31.125 22.13671875 C33.05967779 24.17920389 33.05967779 24.17920389 36 26 C36.99100369 27.07494116 37.94767495 28.18216595 38.875 29.3125 C41.44406368 32.3825311 44.12830263 35.21276432 47 38 C46.505 38.99 46.505 38.99 46 40 C45.24662354 39.22305786 45.24662354 39.22305786 44.47802734 38.43041992 C31.29024752 24.88641673 18.02424398 13.19048343 2.3515625 2.6796875 C1.57554687 2.12539063 0.79953125 1.57109375 0 1 C0 0.67 0 0.34 0 0 Z " fill="#DF6A33" transform="translate(712,360)"/>
<path d="M0 0 C0.33 0.66 0.66 1.32 1 2 C-0.8591674 6.75120558 -3.09721658 8.87777326 -7 12 C-8.01691264 13.99145391 -9.01642648 15.99187074 -10 18 C-12.5625 20.875 -12.5625 20.875 -15 23 C-15.66 23 -16.32 23 -17 23 C-16.67 24.65 -16.34 26.3 -16 28 C-17.98 27.67 -19.96 27.34 -22 27 C-19.5092742 23.17495681 -17.02696221 19.43055717 -14 16 C-13.34 16 -12.68 16 -12 16 C-11.77570312 15.46890625 -11.55140625 14.9378125 -11.3203125 14.390625 C-9.55204584 11.1889114 -7.23950919 8.51852896 -4.875 5.75 C-4.40707031 5.19570313 -3.93914063 4.64140625 -3.45703125 4.0703125 C-2.30824672 2.71052674 -1.15460347 1.35484835 0 0 Z " fill="#F7F3EE" transform="translate(727,888)"/>
<path d="M0 0 C0.66 0.33 1.32 0.66 2 1 C2 1.66 2 2.32 2 3 C1.34 3 0.68 3 0 3 C0.28875 3.5775 0.5775 4.155 0.875 4.75 C1.91666667 6.83333333 2.95833333 8.91666667 4 11 C3.01 11 2.02 11 1 11 C1.185625 12.134375 1.37125 13.26875 1.5625 14.4375 C1.706875 15.613125 1.85125 16.78875 2 18 C1.67 18.33 1.34 18.66 1 19 C1.99 19.66 2.98 20.32 4 21 C1.04938857 21.31898502 -0.44098326 21.4433581 -2.8125 19.5625 C-4.61168865 15.68004029 -4.65149454 12.20385427 -4 8 C-2.89757273 5.11269048 -1.56327898 2.68688574 0 0 Z " fill="#8A4E3E" transform="translate(485,599)"/>
<path d="M0 0 C0.33 0 0.66 0 1 0 C1.38063221 2.3260857 1.71269945 4.66055264 2 7 C1.67 7.33 1.34 7.66 1 8 C1 8.99 1 9.98 1 11 C1 11.99 1 12.98 1 14 C0.67 14.33 0.34 14.66 0 15 C-0.15980437 17.44608998 -0.25929447 19.86731058 -0.31640625 22.31640625 C-0.33718735 23.04746078 -0.35796844 23.77851532 -0.37937927 24.53172302 C-0.44495024 26.87521656 -0.50379432 29.21882539 -0.5625 31.5625 C-0.60567808 33.14779855 -0.64929213 34.73308529 -0.69335938 36.31835938 C-0.8006392 40.21212037 -0.9018849 44.10599772 -1 48 C-1.33 48 -1.66 48 -2 48 C-3.2345845 43.18018211 -3.19158582 38.44112233 -3.1875 33.5 C-3.18737915 32.13439941 -3.18737915 32.13439941 -3.18725586 30.74121094 C-2.96122825 2.96122825 -2.96122825 2.96122825 0 0 Z " fill="#864838" transform="translate(569,458)"/>
<path d="M0 0 C1.32 0.66 2.64 1.32 4 2 C4 2.99 4 3.98 4 5 C3.34 5 2.68 5 2 5 C1.9175 5.5775 1.835 6.155 1.75 6.75 C0.7620384 9.71388479 -0.53822058 11.10091302 -3 13 C-5.25 12.75 -5.25 12.75 -7 12 C-7.8125 10.3125 -7.8125 10.3125 -8 8 C-5.75 5.4375 -5.75 5.4375 -3 3 C-2.401875 2.401875 -1.80375 1.80375 -1.1875 1.1875 C-0.795625 0.795625 -0.40375 0.40375 0 0 Z " fill="#F9CB27" transform="translate(479,712)"/>
<path d="M0 0 C0.99 0.33 1.98 0.66 3 1 C2.34 1 1.68 1 1 1 C1 1.66 1 2.32 1 3 C0.38125 3.5775 -0.2375 4.155 -0.875 4.75 C-3.34107433 7.36113753 -4.06457561 9.57011055 -5 13 C-6.32 12.34 -7.64 11.68 -9 11 C-9.66 11.66 -10.32 12.32 -11 13 C-10.01 14.485 -10.01 14.485 -9 16 C-9.99 16.99 -10.98 17.98 -12 19 C-12.66 18.67 -13.32 18.34 -14 18 C-17.12498166 17.6626154 -17.12498166 17.6626154 -19.1875 20 C-19.785625 20.66 -20.38375 21.32 -21 22 C-21.66 21.67 -22.32 21.34 -23 21 C-17.83649529 15.57018273 -12.3826697 10.73823479 -6.515625 6.078125 C-4.19683412 4.1626021 -2.08583833 2.1638136 0 0 Z " fill="#824334" transform="translate(554,530)"/>
<path d="M0 0 C3.52322762 0.5643265 4.89595731 1.63070121 7.125 4.375 C10.14886934 7.99837284 13.25233959 11.51901824 16.4375 15 C17.30246094 15.94875 18.16742187 16.8975 19.05859375 17.875 C19.69925781 18.57625 20.33992187 19.2775 21 20 C18.18185434 21.40907283 16.82722796 20.50872691 13.875 19.5625 C12.50988281 19.13130859 12.50988281 19.13130859 11.1171875 18.69140625 C10.41851563 18.46324219 9.71984375 18.23507812 9 18 C9 17.01 9 16.02 9 15 C8.34 14.67 7.68 14.34 7 14 C11 14 11 14 13 15 C12.67 14.34 12.34 13.68 12 13 C11.01 12.67 10.02 12.34 9 12 C7.97862543 10.34634594 6.98387706 8.67623498 6 7 C4.067332 4.60646501 2.04570486 2.29728022 0 0 Z " fill="#874B3B" transform="translate(635,651)"/>
<path d="M0 0 C2.97 0.33 5.94 0.66 9 1 C9 1.66 9 2.32 9 3 C9.66 3.66 10.32 4.32 11 5 C11.144375 5.763125 11.28875 6.52625 11.4375 7.3125 C11.86453965 10.11453168 11.86453965 10.11453168 13.625 12.625 C14.305625 13.800625 14.305625 13.800625 15 15 C14.67 15.99 14.34 16.98 14 18 C0 2.84095861 0 2.84095861 0 0 Z " fill="#F6C10B" transform="translate(443,855)"/>
<path d="M0 0 C3.26831933 3.79942122 5.02300869 8.20143353 7 12.75 C7.51433594 13.91015625 7.51433594 13.91015625 8.0390625 15.09375 C14 28.65374523 14 28.65374523 14 34 C13.34 34 12.68 34 12 34 C10.35 29.05 8.7 24.1 7 19 C6.34 19 5.68 19 5 19 C2 15.53846154 2 15.53846154 2 13 C2.66 13 3.32 13 4 13 C3.71125 12.31292969 3.4225 11.62585938 3.125 10.91796875 C2.568125 9.56638672 2.568125 9.56638672 2 8.1875 C1.62875 7.29417969 1.2575 6.40085937 0.875 5.48046875 C0 3 0 3 0 0 Z " fill="#E26C35" transform="translate(895,396)"/>
<path d="M0 0 C4.32626991 2.35105981 7.64756147 5.26446503 11.1875 8.625 C14.79781992 12.21402746 14.79781992 12.21402746 19 15 C19 15.66 19 16.32 19 17 C19.55171875 17.23460937 20.1034375 17.46921875 20.671875 17.7109375 C23.59325764 19.32848158 25.79574497 21.36450195 28.25 23.625 C29.14203125 24.44226563 30.0340625 25.25953125 30.953125 26.1015625 C31.96632813 27.04128906 31.96632813 27.04128906 33 28 C28.87092028 28 27.88004835 26.3082052 24.9375 23.5 C21.94686047 20.16463808 21.94686047 20.16463808 18 19 C16.98594743 17.67732273 15.98731742 16.34275169 15 15 C14.01 14.34 13.02 13.68 12 13 C10 11 10 11 9 9 C8.34 9 7.68 9 7 9 C4.375 6.625 4.375 6.625 2 4 C2 3.34 2 2.68 2 2 C1.34 2 0.68 2 0 2 C0 1.34 0 0.68 0 0 Z " fill="#7D3F31" transform="translate(640,526)"/>
<path d="M0 0 C3.40013186 0.5765441 4.92670485 1.60997661 7.25 4.125 C9.67645223 6.6647897 12.13669134 9.03671122 14.8125 11.3125 C28.33522727 23.00568182 28.33522727 23.00568182 30 28 C26.1680287 26.46371994 24.10175925 24.10154038 21.4375 21 C19.00927798 18.18277108 17.10531867 16.07021245 14 14 C14 13.34 14 12.68 14 12 C13.34 12 12.68 12 12 12 C12 11.34 12 10.68 12 10 C11.42765625 9.74347656 10.8553125 9.48695313 10.265625 9.22265625 C7.77351217 7.87777467 5.86644919 6.31486882 3.75 4.4375 C3.04359375 3.81746094 2.3371875 3.19742188 1.609375 2.55859375 C1.07828125 2.04425781 0.5471875 1.52992188 0 1 C0 0.67 0 0.34 0 0 Z " fill="#824536" transform="translate(673,556)"/>
<path d="M0 0 C0.99 1.32 1.98 2.64 3 4 C1.48484848 7.78787879 1.48484848 7.78787879 -1 8.875 C-3.34687631 9.9199192 -3.34687631 9.9199192 -4.25 13.125 C-4.4975 14.07375 -4.745 15.0225 -5 16 C-5.66 16 -6.32 16 -7 16 C-7.99 18.475 -7.99 18.475 -9 21 C-9.66 20.67 -10.32 20.34 -11 20 C-11 15.99533539 -9.45285284 14.3985369 -7.1875 11.125 C-4.67486565 7.47275553 -2.23853892 3.82740725 0 0 Z " fill="#F7F2EC" transform="translate(877,712)"/>
<path d="M0 0 C5.49280774 4.39005853 9.64108735 9.04611463 13.8125 14.6875 C14.38419922 15.44611328 14.95589844 16.20472656 15.54492188 16.98632812 C17.77178059 19.95111182 19.94263122 22.91394683 22 26 C21.67 26.99 21.34 27.98 21 29 C20.34 27.35 19.68 25.7 19 24 C18.34 24 17.68 24 17 24 C16.67 22.68 16.34 21.36 16 20 C15.34 20 14.68 20 14 20 C13.38125 19.030625 12.7625 18.06125 12.125 17.0625 C10.34963648 13.89459901 10.34963648 13.89459901 7.75 13.125 C6.88375 13.063125 6.88375 13.063125 6 13 C6 12.01 6 11.02 6 10 C4.97601246 7.35469885 3.90057581 5.90057581 1.875 3.875 C1.25625 3.25625 0.6375 2.6375 0 2 C0 1.34 0 0.68 0 0 Z " fill="#E16C35" transform="translate(846,322)"/>
<path d="M0 0 C4.42457537 1.40638289 6.82481005 3.53112809 10 6.875 C12.50626123 9.49874222 14.91144363 11.93010686 17.76171875 14.1796875 C20.15303535 16.12445807 20.67792381 16.9939556 21 20 C18.37886292 20 16.49064888 19.68707555 14 19 C14.33 17.35 14.66 15.7 15 14 C14.01 13.67 13.02 13.34 12 13 C10.32932867 11.00334402 8.66247014 9.00348966 7 7 C6.34 7 5.68 7 5 7 C3.7109375 5.46875 3.7109375 5.46875 2.375 3.5 C1.70597656 2.52546875 1.70597656 2.52546875 1.0234375 1.53125 C0.68570313 1.0259375 0.34796875 0.520625 0 0 Z " fill="#E57540" transform="translate(813,290)"/>
<path d="M0 0 C3.42280517 1.46582015 5.56480483 3.38062255 8.125 6.0625 C10.77905 8.91571933 10.77905 8.91571933 14 11 C14 11.66 14 12.32 14 13 C14.66 13 15.32 13 16 13 C16 13.66 16 14.32 16 15 C16.99 15.33 17.98 15.66 19 16 C19 16.66 19 17.32 19 18 C19.99 18.33 20.98 18.66 22 19 C22 19.66 22 20.32 22 21 C22.66 21 23.32 21 24 21 C24 21.66 24 22.32 24 23 C24.99 23.33 25.98 23.66 27 24 C27 24.66 27 25.32 27 26 C20.97257094 23.32114264 17.0380218 19.0105778 12.83203125 14.08984375 C9.29457912 10.05458386 5.40364193 6.36765112 1.5625 2.625 C0 1 0 1 0 0 Z " fill="#EB8655" transform="translate(717,718)"/>
<path d="M0 0 C0 2.97 0 5.94 0 9 C-0.66 9 -1.32 9 -2 9 C-2.33 11.97 -2.66 14.94 -3 18 C-6.51769206 12.72346191 -6.10579441 7.13607598 -6 1 C-1.125 0 -1.125 0 0 0 Z " fill="#8A4D3C" transform="translate(583,591)"/>
<path d="M0 0 C4.2742558 1.5830577 6.26531794 4.50568404 9 8 C8.34 8.66 7.68 9.32 7 10 C7 9.34 7 8.68 7 8 C5.68 8 4.36 8 3 8 C3 8.66 3 9.32 3 10 C2.01 9.67 1.02 9.34 0 9 C-1.1875 5.4375 -1.1875 5.4375 -2 2 C-1.34 1.34 -0.68 0.68 0 0 Z " fill="#FBFCF9" transform="translate(362,765)"/>
<path d="M0 0 C-0.33 1.98 -0.66 3.96 -1 6 C-1.78375 5.95875 -2.5675 5.9175 -3.375 5.875 C-6.16116119 5.71271266 -6.16116119 5.71271266 -8 8 C-7.67 6.35 -7.34 4.7 -7 3 C-8.13888672 3.25136719 -8.13888672 3.25136719 -9.30078125 3.5078125 C-10.29464844 3.71148438 -11.28851562 3.91515625 -12.3125 4.125 C-13.29863281 4.33382812 -14.28476562 4.54265625 -15.30078125 4.7578125 C-18 5 -18 5 -21 3 C-18.06298109 2.49702428 -15.12544669 1.99750127 -12.1875 1.5 C-11.35412109 1.35691406 -10.52074219 1.21382812 -9.66210938 1.06640625 C-8.45844727 0.86337891 -8.45844727 0.86337891 -7.23046875 0.65625 C-6.12288208 0.46772461 -6.12288208 0.46772461 -4.99291992 0.27539062 C-3 0 -3 0 0 0 Z " fill="#F4C216" transform="translate(647,744)"/>
<path d="M0 0 C0 1.98 0 3.96 0 6 C-1.32 6.33 -2.64 6.66 -4 7 C-4 6.34 -4 5.68 -4 5 C-4.86625 5.309375 -4.86625 5.309375 -5.75 5.625 C-8.51967567 6.08661261 -9.64561267 5.42944945 -12 4 C-12.33 4.66 -12.66 5.32 -13 6 C-13.33 5.01 -13.66 4.02 -14 3 C-12.04486839 2.303447 -10.08577524 1.61800435 -8.125 0.9375 C-7.03445313 0.55464844 -5.94390625 0.17179687 -4.8203125 -0.22265625 C-2 -1 -2 -1 0 0 Z " fill="#F9F5F0" transform="translate(544,337)"/>
<path d="M0 0 C2.475 0.495 2.475 0.495 5 1 C4.979375 2.19625 4.95875 3.3925 4.9375 4.625 C4.93117429 8.18004869 5.30111125 11.50555624 6 15 C5.34 15 4.68 15 4 15 C3.67 15.66 3.34 16.32 3 17 C2.49622232 14.73000175 1.99709981 12.45896997 1.5 10.1875 C1.08234375 8.29064453 1.08234375 8.29064453 0.65625 6.35546875 C0 3 0 3 0 0 Z " fill="#F9FCF9" transform="translate(393,575)"/>
<path d="M0 0 C3.91939465 3.80411834 7.49102731 7.81576108 11 12 C10.34 12.66 9.68 13.32 9 14 C6.375 13.625 6.375 13.625 4 13 C3.67 12.01 3.34 11.02 3 10 C2.67 9.67 2.34 9.34 2 9 C1.63557767 7.33985384 1.30027117 5.67293936 1 4 C0.34 4 -0.32 4 -1 4 C-0.67 2.68 -0.34 1.36 0 0 Z " fill="#F9F9F0" transform="translate(382,786)"/>
<path d="M0 0 C1.32 0.66 2.64 1.32 4 2 C2 4 2 4 0.25 4.3125 C-3.20348824 5.36773252 -5.31054807 7.61616761 -8 10 C-7.67 10.66 -7.34 11.32 -7 12 C-8.75 12.625 -8.75 12.625 -11 13 C-12.32 12.34 -13.64 11.68 -15 11 C-10.05 7.37 -5.1 3.74 0 0 Z " fill="#FAFAEC" transform="translate(484,363)"/>
<path d="M0 0 C0 0.99 0 1.98 0 3 C0.66 3.33 1.32 3.66 2 4 C1.67 4.99 1.34 5.98 1 7 C-1.72265625 7.94921875 -1.72265625 7.94921875 -5.0625 8.6875 C-6.71958984 9.06455078 -6.71958984 9.06455078 -8.41015625 9.44921875 C-9.26480469 9.63097656 -10.11945312 9.81273437 -11 10 C-10.06409496 8.8944811 -9.12620142 7.79064547 -8.1875 6.6875 C-7.66542969 6.07261719 -7.14335938 5.45773437 -6.60546875 4.82421875 C-2.35974304 0 -2.35974304 0 0 0 Z " fill="#884937" transform="translate(556,662)"/>
<path d="M0 0 C0.66 0.33 1.32 0.66 2 1 C1.67 1.99 1.34 2.98 1 4 C0.65772583 5.33106622 0.32248257 6.66400079 0 8 C-1.32 8 -2.64 8 -4 8 C-5.41904676 8.14501208 -6.83607595 8.31147679 -8.25 8.5 C-10.10625 8.7475 -10.10625 8.7475 -12 9 C-12 8.34 -12 7.68 -12 7 C-9.4453125 5.23828125 -9.4453125 5.23828125 -6.125 3.3125 C-5.03445313 2.66925781 -3.94390625 2.02601563 -2.8203125 1.36328125 C-1.88960937 0.91339844 -0.95890625 0.46351563 0 0 Z " fill="#F8F3EE" transform="translate(647,974)"/>
<path d="M0 0 C0.66 0 1.32 0 2 0 C3.00484204 1.95585325 4.00373805 3.91476237 5 5.875 C5.556875 6.96554687 6.11375 8.05609375 6.6875 9.1796875 C8 12 8 12 8 14 C6.35 14.33 4.7 14.66 3 15 C-0.125 8.375 -0.125 8.375 1 5 C0.60602665 2.36195411 0.60602665 2.36195411 0 0 Z " fill="#F8F3EE" transform="translate(785,441)"/>
<path d="M0 0 C0.99 0 1.98 0 3 0 C2.71905418 1.8141927 2.42493567 3.62635001 2.125 5.4375 C1.96257812 6.44683594 1.80015625 7.45617187 1.6328125 8.49609375 C1.42398437 9.32238281 1.21515625 10.14867187 1 11 C0.01 11.495 0.01 11.495 -1 12 C-2.05352843 14.30965848 -3.05719096 16.6429774 -4 19 C-4.66 19 -5.32 19 -6 19 C-4.3186083 12.51292846 -2.46937673 6.2322365 0 0 Z " fill="#F5C11A" transform="translate(293,421)"/>
<path d="M0 0 C0 5.66131582 -5.35834777 9.94385077 -9 14 C-10.93653306 15.83481617 -12.85673685 17.40629151 -15 19 C-13.79618552 16.50638429 -12.54571278 14.31856917 -11 12 C-10.34 12 -9.68 12 -9 12 C-8.814375 10.2984375 -8.814375 10.2984375 -8.625 8.5625 C-8.41875 7.386875 -8.2125 6.21125 -8 5 C-7.34 4.67 -6.68 4.34 -6 4 C-6 3.34 -6 2.68 -6 2 C-4.68 2 -3.36 2 -2 2 C-1.34 1.34 -0.68 0.68 0 0 Z " fill="#E36F38" transform="translate(689,930)"/>
<path d="M0 0 C0 2.97 0 5.94 0 9 C-0.99 8.01 -1.98 7.02 -3 6 C-3.66 6.66 -4.32 7.32 -5 8 C-8.125 7.625 -8.125 7.625 -11 7 C-4.48275862 0 -4.48275862 0 0 0 Z " fill="#F5C313" transform="translate(716,715)"/>
<path d="M0 0 C3.72390287 2.36975637 7.09634199 4.64962537 10 8 C10 8.66 10 9.32 10 10 C10.99 10.33 11.98 10.66 13 11 C15.6875 13.375 15.6875 13.375 18 16 C18 16.99 18 17.98 18 19 C17.67 18.34 17.34 17.68 17 17 C16.44570313 16.7525 15.89140625 16.505 15.3203125 16.25 C11.92406101 14.42036957 9.54381575 11.75323085 6.875 9 C6.33746094 8.4534375 5.79992187 7.906875 5.24609375 7.34375 C3.82680203 5.89968262 2.41307424 4.45015199 1 3 C0.34 2.34 -0.32 1.68 -1 1 C-0.67 0.67 -0.34 0.34 0 0 Z " fill="#996151" transform="translate(543,542)"/>
<path d="M0 0 C3.28827199 1.09609066 5.69373655 2.48846276 8.375 4.625 C11.91083344 7.27493231 14.57046179 7.45199369 19 7 C18.814375 7.61875 18.62875 8.2375 18.4375 8.875 C17.76313824 11.04160178 17.76313824 11.04160178 19 13 C15.08551482 11.56874399 11.70866662 9.72488708 8.1875 7.5 C7.21167969 6.8915625 6.23585938 6.283125 5.23046875 5.65625 C4.49441406 5.1096875 3.75835938 4.563125 3 4 C3 3.34 3 2.68 3 2 C2.01 2 1.02 2 0 2 C0 1.34 0 0.68 0 0 Z " fill="#854737" transform="translate(627,563)"/>
<path d="M0 0 C0.66 0.33 1.32 0.66 2 1 C0.26194659 2.36946622 -1.49091233 3.72015954 -3.25 5.0625 C-4.22453125 5.81660156 -5.1990625 6.57070313 -6.203125 7.34765625 C-9 9 -9 9 -11.359375 8.74609375 C-11.90078125 8.49988281 -12.4421875 8.25367188 -13 8 C-12.67 6.35 -12.34 4.7 -12 3 C-9 2 -9 2 -7.125 2.625 C-4.03039026 3.1711076 -2.57574273 1.62678488 0 0 Z " fill="#87493B" transform="translate(566,567)"/>
<path d="M0 0 C1.25882323 3.76700486 0.96221633 7.19696656 0.6875 11.125 C0.60886719 12.36507813 0.53023437 13.60515625 0.44921875 14.8828125 C0 18 0 18 -2 20 C-4 18 -4 18 -4.08203125 15.64453125 C-3.52909275 9.83467025 -2.66188142 5.20802886 0 0 Z " fill="#854939" transform="translate(574,438)"/>
<path d="M0 0 C4.13937592 3.30015998 7.58662205 6.17324411 10 11 C8.35 11.33 6.7 11.66 5 12 C4.67 11.34 4.34 10.68 4 10 C3.01 9.67 2.02 9.34 1 9 C1.020625 8.2575 1.04125 7.515 1.0625 6.75 C1.00639992 4.28159657 0.64079596 2.36135836 0 0 Z " fill="#F9F8EA" transform="translate(425,836)"/>
<path d="M0 0 C0.99 0.33 1.98 0.66 3 1 C3.26218749 4.14624993 3.24754367 5.61837017 1.5 8.3125 C1.005 8.869375 0.51 9.42625 0 10 C-0.33 9.67 -0.66 9.34 -1 9 C-2.98 12.63 -4.96 16.26 -7 20 C-7.33 19.34 -7.66 18.68 -8 18 C-6.94583866 15.45882337 -5.8391207 13.02549676 -4.625 10.5625 C-2.08205349 5.37929577 -2.08205349 5.37929577 0 0 Z " fill="#E26B34" transform="translate(794,619)"/>
<path d="M0 0 C0.33 0.66 0.66 1.32 1 2 C0.46375 2.556875 -0.0725 3.11375 -0.625 3.6875 C-1.305625 4.8321875 -1.305625 4.8321875 -2 6 C-1.29042763 8.73398135 -1.29042763 8.73398135 0 11 C-0.99 11.66 -1.98 12.32 -3 13 C-2.67 11.68 -2.34 10.36 -2 9 C-2.598125 9.515625 -3.19625 10.03125 -3.8125 10.5625 C-4.534375 11.036875 -5.25625 11.51125 -6 12 C-6.99 11.67 -7.98 11.34 -9 11 C-8.06558465 9.72689688 -7.12732889 8.456612 -6.1875 7.1875 C-5.66542969 6.47980469 -5.14335938 5.77210938 -4.60546875 5.04296875 C-3.16871123 3.21468607 -1.68184237 1.60103312 0 0 Z " fill="#F6F2ED" transform="translate(808,795)"/>
<path d="M0 0 C0.66 0.33 1.32 0.66 2 1 C4.09821215 0.60061233 4.09821215 0.60061233 6 0 C2.30588805 4.06704135 -1.25501172 6.50410699 -6.1875 8.875 C-6.81591797 9.1946875 -7.44433594 9.514375 -8.09179688 9.84375 C-9.69523739 10.63260843 -11.34549324 11.32477671 -13 12 C-13.66 11.67 -14.32 11.34 -15 11 C-5.28571429 5 -5.28571429 5 -2 5 C-2 4.01 -2 3.02 -2 2 C-1.34 2 -0.68 2 0 2 C0 1.34 0 0.68 0 0 Z " fill="#E06931" transform="translate(645,971)"/>
<path d="M0 0 C0.33 0.99 0.66 1.98 1 3 C-0.051875 3.350625 -1.10375 3.70125 -2.1875 4.0625 C-7.5085864 6.02088907 -12.33299526 8.86987664 -17.2421875 11.671875 C-18.15226562 12.11015625 -19.06234375 12.5484375 -20 13 C-20.66 12.67 -21.32 12.34 -22 12 C-14.86998546 7.5516281 -7.56139223 3.66376737 0 0 Z " fill="#E16B34" transform="translate(456,243)"/>
<path d="M0 0 C5.32108496 1.85505714 9.43619661 5.03631289 13.96484375 8.3203125 C17.31249174 10.17293622 19.23803595 10.34760324 23 10 C23 10.66 23 11.32 23 12 C20.03367954 12.99500198 17.92489546 13.4283318 15.02099609 12.08349609 C12.84388051 10.6945138 10.7635736 9.22330331 8.6875 7.6875 C7.95982422 7.17509766 7.23214844 6.66269531 6.48242188 6.13476562 C1.16793759 2.33587518 1.16793759 2.33587518 0 0 Z " fill="#7F4135" transform="translate(694,607)"/>
<path d="M0 0 C0.33 0 0.66 0 1 0 C3.53069719 8.06659729 3.53069719 8.06659729 3 12 C1.13671875 13.73046875 1.13671875 13.73046875 -1.3125 15.1875 C-2.11300781 15.67605469 -2.91351562 16.16460938 -3.73828125 16.66796875 C-4.48464844 17.10753906 -5.23101563 17.54710937 -6 18 C-6.99 18.66 -7.98 19.32 -9 20 C-7.44396229 16.18063472 -5.04395069 13.73955562 -2 11 C-1.34 11 -0.68 11 0 11 C0 7.37 0 3.74 0 0 Z " fill="#7F412F" transform="translate(568,508)"/>
<path d="M0 0 C4.65529963 3.57267181 7.86313212 7.01791571 11 12 C11 12.99 11 13.98 11 15 C9.68 15 8.36 15 7 15 C6.608125 13.80375 6.21625 12.6075 5.8125 11.375 C4.23211765 7.10492845 2.07699345 4.3264794 -1 1 C-0.67 0.67 -0.34 0.34 0 0 Z " fill="#884B3B" transform="translate(599,392)"/>
<path d="M0 0 C5.40787952 0.44145955 10.56112514 1.52949691 15.8125 2.875 C16.47064697 3.03645508 17.12879395 3.19791016 17.80688477 3.36425781 C21.30076531 4.28901612 23.75667817 5.08117977 26 8 C17.01057849 7.16377474 8.5123537 3.85451861 0 1 C0 0.67 0 0.34 0 0 Z " fill="#E26A33" transform="translate(648,333)"/>
<path d="M0 0 C2.93200474 2.85276137 5.64315404 5.65079784 8 9 C5 10 5 10 2.9375 9.125 C2.298125 8.75375 1.65875 8.3825 1 8 C0.34 7.67 -0.32 7.34 -1 7 C-1 5.68 -1 4.36 -1 3 C-1.33 2.34 -1.66 1.68 -2 1 C-1.34 0.67 -0.68 0.34 0 0 Z " fill="#F9F9F0" transform="translate(477,896)"/>
<path d="M0 0 C-0.99 0.33 -1.98 0.66 -3 1 C-3.33 2.65 -3.66 4.3 -4 6 C-5.98 6 -7.96 6 -10 6 C-9.34 5.34 -8.68 4.68 -8 4 C-10.31 4 -12.62 4 -15 4 C-12.38668086 2.58445213 -9.69281871 1.41868688 -6.9375 0.3125 C-6.26589844 0.04050781 -5.59429688 -0.23148438 -4.90234375 -0.51171875 C-3 -1 -3 -1 0 0 Z " fill="#F6C215" transform="translate(675,737)"/>
<path d="M0 0 C0.99 0.33 1.98 0.66 3 1 C1.71656721 3.00573682 0.4239631 5.00436119 -0.875 7 C-1.23980469 7.57234375 -1.60460937 8.1446875 -1.98046875 8.734375 C-2.93474767 10.19181916 -3.96277587 11.60037225 -5 13 C-5.66 13 -6.32 13 -7 13 C-6.855625 12.443125 -6.71125 11.88625 -6.5625 11.3125 C-5.93373478 8.96783997 -5.93373478 8.96783997 -5.75 6.375 C-5.5025 5.59125 -5.255 4.8075 -5 4 C-2.4375 2.6875 -2.4375 2.6875 0 2 C0 1.34 0 0.68 0 0 Z " fill="#F7F5F0" transform="translate(775,651)"/>
<path d="M0 0 C2.05078125 0.03255208 4.1015625 0.06510417 6.15234375 0.09765625 C6.27734375 4.84765625 6.27734375 4.84765625 5.15234375 7.09765625 C2.84234375 6.43765625 0.53234375 5.77765625 -1.84765625 5.09765625 C-2.41015625 3.16015625 -2.41015625 3.16015625 -2.84765625 1.09765625 C-1.84765625 0.09765625 -1.84765625 0.09765625 0 0 Z " fill="#F9F6F2" transform="translate(713.84765625,224.90234375)"/>
<path d="M0 0 C-0.185625 0.721875 -0.37125 1.44375 -0.5625 2.1875 C-1.01995307 5.12826973 -0.73516357 7.14103058 0 10 C-1.15224028 9.07038578 -2.29659176 8.1309875 -3.4375 7.1875 C-4.39462891 6.40439453 -4.39462891 6.40439453 -5.37109375 5.60546875 C-7 4 -7 4 -8 1 C-5.29120665 -0.35439668 -2.99066732 -0.06501451 0 0 Z " fill="#F5C112" transform="translate(488,897)"/>
<path d="M0 0 C0.33 0.66 0.66 1.32 1 2 C1.66 2.33 2.32 2.66 3 3 C2.34 3.66 1.68 4.32 1 5 C0.28591666 6.98356483 -0.38617742 8.98315437 -1 11 C-3.97 10.505 -3.97 10.505 -7 10 C-4.75421558 6.59260295 -2.48862878 3.23521742 0 0 Z " fill="#FAF7E5" transform="translate(438,404)"/>
<path d="M0 0 C1.32 0.33 2.64 0.66 4 1 C4 1.66 4 2.32 4 3 C4.66 3 5.32 3 6 3 C6 4.98 6 6.96 6 9 C3.03 7.35 0.06 5.7 -3 4 C-2.01 3.01 -1.02 2.02 0 1 C0 0.67 0 0.34 0 0 Z " fill="#FAF7F3" transform="translate(778,257)"/>
<path d="M0 0 C0.99 0.33 1.98 0.66 3 1 C2.46939601 5.51013391 0.69113883 8.38378219 -2 12 C-2.33 12 -2.66 12 -3 12 C-3.2954439 6.97745369 -2.98514628 4.10457614 0 0 Z " fill="#E3713A" transform="translate(886,690)"/>
<path d="M0 0 C4.18423892 3.50897269 8.19588166 7.08060535 12 11 C9.69 11 7.38 11 5 11 C5.33 9.68 5.66 8.36 6 7 C5.38125 6.95875 4.7625 6.9175 4.125 6.875 C3.42375 6.58625 2.7225 6.2975 2 6 C0.75 2.9375 0.75 2.9375 0 0 Z " fill="#F6BF14" transform="translate(447,684)"/>
<path d="M0 0 C0.66 0 1.32 0 2 0 C2.33 2.31 2.66 4.62 3 7 C3.99 7.33 4.98 7.66 6 8 C5.67 9.65 5.34 11.3 5 13 C1.66442368 10.0094833 -0.15083921 7.06815373 -2 3 C-1.34 2.01 -0.68 1.02 0 0 Z " fill="#F9F8EB" transform="translate(425,649)"/>
<path d="M0 0 C2.25245881 2.68841859 3.88213958 4.64641875 5 8 C4.34 8.66 3.68 9.32 3 10 C1.35 9.01 -0.3 8.02 -2 7 C-1.125 1.125 -1.125 1.125 0 0 Z " fill="#F6C213" transform="translate(418,645)"/>
<path d="M0 0 C1 4 1 4 0 7 C-0.99 7.495 -0.99 7.495 -2 8 C-2 8.99 -2 9.98 -2 11 C-2.99 11.495 -2.99 11.495 -4 12 C-4.99 10.68 -5.98 9.36 -7 8 C-4.69 5.36 -2.38 2.72 0 0 Z " fill="#F7F5EF" transform="translate(704,915)"/>
<path d="M0 0 C2.64752004 2.57784846 4.94432065 4.91648098 7 8 C4.30234372 9.34882814 2.84835666 8.80338265 0 8 C-1.02455574 5.95088852 -1.64644564 4.26274788 -2 2 C-1.34 1.34 -0.68 0.68 0 0 Z " fill="#FAF9EC" transform="translate(435,847)"/>
<path d="M0 0 C0.66 0 1.32 0 2 0 C3.5078125 1.96875 3.5078125 1.96875 5.125 4.5 C5.66382813 5.3353125 6.20265625 6.170625 6.7578125 7.03125 C7.16773438 7.6809375 7.57765625 8.330625 8 9 C7.01 9.495 7.01 9.495 6 10 C4.33333333 9 2.66666667 8 1 7 C0.01 7.495 0.01 7.495 -1 8 C-1 6.68 -1 5.36 -1 4 C-0.34 4 0.32 4 1 4 C0.67 2.68 0.34 1.36 0 0 Z " fill="#F6C111" transform="translate(426,659)"/>
<path d="M0 0 C3.61710176 0.56072975 5.05556748 1.78026991 7.375 4.5625 C7.97183594 5.27535156 8.56867187 5.98820313 9.18359375 6.72265625 C11.86968601 10.09038052 14.46914523 13.51428061 17 17 C13.125 15.25 13.125 15.25 12 13 C11.01 12.67 10.02 12.34 9 12 C7.97862543 10.34634594 6.98387706 8.67623498 6 7 C4.067332 4.60646501 2.04570486 2.29728022 0 0 Z " fill="#804433" transform="translate(635,651)"/>
<path d="M0 0 C1.98 0.66 3.96 1.32 6 2 C5.01 3.485 5.01 3.485 4 5 C2 5 0 5 -2 5 C-4.18777466 6.9375006 -4.18777466 6.9375006 -6 9 C-6.66 8.67 -7.32 8.34 -8 8 C-5.36 5.36 -2.72 2.72 0 0 Z " fill="#864A3B" transform="translate(539,543)"/>
<path d="M0 0 C0.33 0 0.66 0 1 0 C0.47458553 7.7498635 -1.55591476 14.6450086 -4 22 C-4.8864727 18.85466353 -4.91215171 17.14185588 -4 14 C-4 13.01 -4 12.02 -4 11 C-3.34 11.33 -2.68 11.66 -2 12 C-1.93941406 11.30132813 -1.87882813 10.60265625 -1.81640625 9.8828125 C-1.69072266 8.51769531 -1.69072266 8.51769531 -1.5625 7.125 C-1.48128906 6.22007812 -1.40007813 5.31515625 -1.31640625 4.3828125 C-1 2 -1 2 0 0 Z " fill="#E1662E" transform="translate(918,610)"/>
<path d="M0 0 C0.33 0 0.66 0 1 0 C1 3.3 1 6.6 1 10 C1.66 10 2.32 10 3 10 C2.67 10.99 2.34 11.98 2 13 C0.67696283 13.3721042 -0.65737935 13.70630173 -2 14 C-2.33 14.66 -2.66 15.32 -3 16 C-2.40984815 10.49191603 -1.43336231 5.35121931 0 0 Z " fill="#F3C11A" transform="translate(282,456)"/>
<path d="M0 0 C2.74277578 3.19990508 4.6302836 6.00499382 6 10 C3 11 3 11 -1 11 C-0.67 7.37 -0.34 3.74 0 0 Z " fill="#F8F6F2" transform="translate(778,427)"/>
<path d="M0 0 C0.66 0.33 1.32 0.66 2 1 C-0.475 5.455 -0.475 5.455 -3 10 C-3.99 10 -4.98 10 -6 10 C-5.8125 6.6875 -5.8125 6.6875 -5 3 C-2.5625 1 -2.5625 1 0 0 Z " fill="#FAF9EF" transform="translate(311,379)"/>
<path d="M0 0 C0.33 0 0.66 0 1 0 C0.85866501 1.77119803 0.71176792 3.54195287 0.5625 5.3125 C0.48128906 6.29863281 0.40007813 7.28476562 0.31640625 8.30078125 C-0.15338858 12.30853716 -1.06425467 14.31953688 -4 17 C-4.66 16.67 -5.32 16.34 -6 16 C-4.02 10.72 -2.04 5.44 0 0 Z " fill="#F7EEE5" transform="translate(909,646)"/>
<path d="M0 0 C1.32 0 2.64 0 4 0 C4 0.66 4 1.32 4 2 C4.66 2 5.32 2 6 2 C7.37562854 3.28965176 8.70766393 4.62689293 10 6 C10.66 6.66 11.32 7.32 12 8 C11.01 8.99 10.02 9.98 9 11 C9 10.34 9 9.68 9 9 C8.34 9 7.68 9 7 9 C5.2734375 7.28515625 5.2734375 7.28515625 3.375 5.0625 C2.74335937 4.33160156 2.11171875 3.60070312 1.4609375 2.84765625 C0 1 0 1 0 0 Z " fill="#F4F3F1" transform="translate(630,643)"/>
<path d="M0 0 C6.44422639 2.72640347 10.7382449 7.67280613 15 13 C15.66 13.66 16.32 14.32 17 15 C9.7169131 13.75100737 4.27843023 6.61543967 0 1 C0 0.67 0 0.34 0 0 Z " fill="#FBC91B" transform="translate(408,408)"/>
<path d="M0 0 C6 7.71428571 6 7.71428571 6 11 C5.01 11.33 4.02 11.66 3 12 C0 7.25 0 7.25 0 5 C-0.66 4.67 -1.32 4.34 -2 4 C-1.34 2.68 -0.68 1.36 0 0 Z " fill="#FAF6E5" transform="translate(315,700)"/>
<path d="M0 0 C5.0500077 1.39681064 8.69594418 3.59943922 12.875 6.625 C13.46796875 7.04523438 14.0609375 7.46546875 14.671875 7.8984375 C16.11931674 8.92565422 17.56033919 9.9619063 19 11 C18.34 11.66 17.68 12.32 17 13 C16.27554688 12.46890625 15.55109375 11.9378125 14.8046875 11.390625 C8.64010559 6.85948595 8.64010559 6.85948595 2.3125 2.5625 C1.549375 2.046875 0.78625 1.53125 0 1 C0 0.67 0 0.34 0 0 Z " fill="#E16A32" transform="translate(768,257)"/>
<path d="M0 0 C1.98 0.66 3.96 1.32 6 2 C6.07347656 2.95712891 6.07347656 2.95712891 6.1484375 3.93359375 C6.22320312 4.75988281 6.29796875 5.58617187 6.375 6.4375 C6.44460938 7.26121094 6.51421875 8.08492187 6.5859375 8.93359375 C6.72257812 9.61550781 6.85921875 10.29742188 7 11 C7.66 11.33 8.32 11.66 9 12 C8.01 12 7.02 12 6 12 C4.02 8.04 2.04 4.08 0 0 Z " fill="#F3BE0F" transform="translate(312,694)"/>
<path d="M0 0 C0.66 0.33 1.32 0.66 2 1 C2 1.66 2 2.32 2 3 C1.34 3 0.68 3 0 3 C0.33 3.99 0.66 4.98 1 6 C0.00664799 7.67063747 -0.99431758 9.33675599 -2 11 C-2.71401232 14.19395026 -2.71401232 14.19395026 -3 17 C-3.33 17 -3.66 17 -4 17 C-4.57374185 10.11509775 -3.4753869 5.97332123 0 0 Z " fill="#804031" transform="translate(485,599)"/>
<path d="M0 0 C2.10046143 2.10046143 2.53940212 3.08764028 3.3125 5.875 C3.51488281 6.55304688 3.71726562 7.23109375 3.92578125 7.9296875 C4.02809195 10.7836175 2.84502896 11.91675211 1 14 C0.63794536 12.04310963 0.28558579 10.08442332 -0.0625 8.125 C-0.25972656 7.03445313 -0.45695313 5.94390625 -0.66015625 4.8203125 C-1 2 -1 2 0 0 Z " fill="#F9F6F0" transform="translate(794,458)"/>
<path d="M0 0 C0.66 0.33 1.32 0.66 2 1 C2.33 1 2.66 1 3 1 C3.99 1.33 4.98 1.66 6 2 C3.03 4.64 0.06 7.28 -3 10 C-3.33 8.68 -3.66 7.36 -4 6 C-3.34 6 -2.68 6 -2 6 C-1.34 4.02 -0.68 2.04 0 0 Z " fill="#F7F2EB" transform="translate(386,283)"/>
<path d="M0 0 C2.93200474 2.85276137 5.64315404 5.65079784 8 9 C6.68 9 5.36 9 4 9 C4 8.34 4 7.68 4 7 C3.34 7 2.68 7 2 7 C0.3125 4.625 0.3125 4.625 -1 2 C-0.67 1.34 -0.34 0.68 0 0 Z M-1 5 C-0.01 5.495 -0.01 5.495 1 6 C0.01 6.495 0.01 6.495 -1 7 C-1 6.34 -1 5.68 -1 5 Z " fill="#F8F8EC" transform="translate(485,905)"/>
<path d="M0 0 C0.33 0.66 0.66 1.32 1 2 C-0.09346881 3.34212062 -1.2001575 4.67347975 -2.3125 6 C-3.23482422 7.11375 -3.23482422 7.11375 -4.17578125 8.25 C-6 10 -6 10 -9 10 C-8.525625 9.62875 -8.05125 9.2575 -7.5625 8.875 C-5.47794198 6.37353038 -5.35378509 4.18406582 -5 1 C-3.35 0.67 -1.7 0.34 0 0 Z " fill="#E36C35" transform="translate(850,747)"/>
<path d="M0 0 C0.99 0.33 1.98 0.66 3 1 C2.67 2.98 2.34 4.96 2 7 C0.35 6.67 -1.3 6.34 -3 6 C-3.33 6.99 -3.66 7.98 -4 9 C-4.33 8.34 -4.66 7.68 -5 7 C-3.35 4.69 -1.7 2.38 0 0 Z " fill="#FAF8E8" transform="translate(429,416)"/>
<path d="M0 0 C2.8358562 2.46886304 4.19600752 5.0994988 5.75 8.5 C6.42289063 9.93859375 6.42289063 9.93859375 7.109375 11.40625 C8 14 8 14 7 17 C6.67 16.34 6.34 15.68 6 15 C5.01 15.495 5.01 15.495 4 16 C3.40267181 13.23735711 3 10.83967231 3 8 C2.01642648 5.99187074 1.01691264 3.99145391 0 2 C0 1.34 0 0.68 0 0 Z " fill="#80402F" transform="translate(614,413)"/>
<path d="M0 0 C0 3.12900213 -0.42451317 4.37418862 -2 7 C-2.99 7.495 -2.99 7.495 -4 8 C-4.33 8.99 -4.66 9.98 -5 11 C-8.0625 12.1875 -8.0625 12.1875 -11 13 C-7.61227103 8.30840284 -4.21814817 3.9700218 0 0 Z " fill="#F9F1D7" transform="translate(450,391)"/>
<path d="M0 0 C3 2 3 2 3.6875 4.625 C3.790625 5.40875 3.89375 6.1925 4 7 C3.01 7.33 2.02 7.66 1 8 C0 5 0 5 0 4 C-2.22739701 5.06201737 -2.22739701 5.06201737 -5 7 C-5.66 6.67 -6.32 6.34 -7 6 C-4.69 4.02 -2.38 2.04 0 0 Z " fill="#F9F9EC" transform="translate(468,375)"/>
<path d="M0 0 C0.66 1.65 1.32 3.3 2 5 C1.34 5.66 0.68 6.32 0 7 C0 6.34 0 5.68 0 5 C-1.65 5.66 -3.3 6.32 -5 7 C-5 3 -5 3 -3.625 1.25 C-2 0 -2 0 0 0 Z " fill="#E37038" transform="translate(389,288)"/>
<path d="M0 0 C2.75 0.0625 2.75 0.0625 6 1 C7.95648023 3.24504664 8.79236474 5.19828619 10 8 C9.67 8.99 9.34 9.98 9 11 C7.49703315 9.35687553 5.99769719 7.71042916 4.5 6.0625 C3.6646875 5.14597656 2.829375 4.22945312 1.96875 3.28515625 C0 1 0 1 0 0 Z " fill="#F4C022" transform="translate(448,862)"/>
<path d="M0 0 C5.61 1.98 11.22 3.96 17 6 C17 6.33 17 6.66 17 7 C11.375 7.25 11.375 7.25 8 5 C6.80375 4.690625 5.6075 4.38125 4.375 4.0625 C3.26125 3.711875 2.1475 3.36125 1 3 C0.67 2.01 0.34 1.02 0 0 Z " fill="#F3BC0F" transform="translate(516,732)"/>
<path d="M0 0 C1.65 0 3.3 0 5 0 C4.979375 0.9075 4.95875 1.815 4.9375 2.75 C4.9889755 5.42672588 5.2215017 7.46988052 6 10 C3.35247996 7.42215154 1.05567935 5.08351902 -1 2 C-0.67 1.34 -0.34 0.68 0 0 Z " fill="#F5C010" transform="translate(337,730)"/>
<path d="M0 0 C1 3 1 3 -0.65234375 6.57421875 C-1.40387723 7.95092168 -2.1660567 9.32185409 -2.9375 10.6875 C-3.51661133 11.7403418 -3.51661133 11.7403418 -4.10742188 12.81445312 C-5.06261773 14.54795672 -6.03015386 16.27465009 -7 18 C-7.33 17.01 -7.66 16.02 -8 15 C-7.05988318 13.29883624 -6.05104383 11.63495707 -5 10 C-4.67 9.175 -4.34 8.35 -4 7.5 C-2.92077907 4.80194767 -1.54410664 2.45653328 0 0 Z " fill="#E0682F" transform="translate(897,673)"/>
<path d="M0 0 C1.32 0 2.64 0 4 0 C3.67 0.99 3.34 1.98 3 3 C3.2784375 3.9590625 3.2784375 3.9590625 3.5625 4.9375 C4 7 4 7 2 11 C0.68 8.03 -0.64 5.06 -2 2 C-1.34 2 -0.68 2 0 2 C0 1.34 0 0.68 0 0 Z " fill="#FAF9EC" transform="translate(411,625)"/>
<path d="M0 0 C4.54074179 1.42358391 7.03973147 3.72132073 10.3125 7.125 C11.19550781 8.03507812 12.07851563 8.94515625 12.98828125 9.8828125 C13.65214844 10.58148438 14.31601562 11.28015625 15 12 C9.92753421 12 6.70152566 7.67034674 3.1875 4.3125 C1 2 1 2 0 0 Z " fill="#DE662F" transform="translate(813,290)"/>
<path d="M0 0 C3.94139078 1.66751148 6.7892812 4.22710649 10 7 C9.67 7.66 9.34 8.32 9 9 C6.525 8.01 6.525 8.01 4 7 C4 6.34 4 5.68 4 5 C3.34 5 2.68 5 2 5 C2 4.34 2 3.68 2 3 C1.34 3 0.68 3 0 3 C0 2.01 0 1.02 0 0 Z " fill="#E98251" transform="translate(792,792)"/>
<path d="M0 0 C2.66735273 2.48952921 4.55746343 4.63408134 6 8 C5.01 8.495 5.01 8.495 4 9 C1.375 7.75 1.375 7.75 -1 6 C-1 3 -1 3 0 0 Z " fill="#F9F5DF" transform="translate(332,727)"/>
<path d="M0 0 C0.625 1.8125 0.625 1.8125 1 4 C-1 7 -1 7 -2 8 C-1.34 8.33 -0.68 8.66 0 9 C-0.33 9.66 -0.66 10.32 -1 11 C-2.98 11 -4.96 11 -7 11 C-5.54682061 7.6092481 -3.58699688 5.58699688 -1 3 C-0.67 2.01 -0.34 1.02 0 0 Z " fill="#844737" transform="translate(583,628)"/>
<path d="M0 0 C0.33 0.66 0.66 1.32 1 2 C0.67 2.66 0.34 3.32 0 4 C0.99 4.33 1.98 4.66 3 5 C1.68 8.63 0.36 12.26 -1 16 C-1.93599423 12.25602306 -1.99639916 10.07166178 -1.625 6.3125 C-1.53476562 5.33925781 -1.44453125 4.36601562 -1.3515625 3.36328125 C-1 1 -1 1 0 0 Z " fill="#F5BE0C" transform="translate(405,448)"/>
<path d="M0 0 C0.66 0.66 1.32 1.32 2 2 C0.85865673 4.00256574 -0.28818633 6.00199797 -1.4375 8 C-2.39462891 9.670625 -2.39462891 9.670625 -3.37109375 11.375 C-3.90863281 12.24125 -4.44617188 13.1075 -5 14 C-5.33 14 -5.66 14 -6 14 C-6.1875 11.6875 -6.1875 11.6875 -6 9 C-4.5625 7.4375 -4.5625 7.4375 -3 6 C-2.28552357 3.89667109 -2.28552357 3.89667109 -2 2 C-1.34 2 -0.68 2 0 2 C0 1.34 0 0.68 0 0 Z " fill="#F4BF11" transform="translate(418,429)"/>
<path d="M0 0 C0.33 0 0.66 0 1 0 C1.33 3.3 1.66 6.6 2 10 C1.34 10 0.68 10 0 10 C-1.2890625 8.46875 -1.2890625 8.46875 -2.625 6.5 C-3.07101562 5.8503125 -3.51703125 5.200625 -3.9765625 4.53125 C-4.48316406 3.77328125 -4.48316406 3.77328125 -5 3 C-4.67 2.34 -4.34 1.68 -4 1 C-2.515 1.99 -2.515 1.99 -1 3 C-0.67 2.01 -0.34 1.02 0 0 Z " fill="#E56F3A" transform="translate(768,403)"/>
<path d="M0 0 C0.66 1.32 1.32 2.64 2 4 C1.34 4.66 0.68 5.32 0 6 C-0.33 6.66 -0.66 7.32 -1 8 C-1.99 8.33 -2.98 8.66 -4 9 C-4.66 8.34 -5.32 7.68 -6 7 C-4.02 4.69 -2.04 2.38 0 0 Z " fill="#F4C017" transform="translate(352,323)"/>
<path d="M0 0 C1.56306619 2.67954204 2.29561987 5.18306947 2.9375 8.1875 C3.288125 9.445625 3.63875 10.70375 4 12 C4.99 12.33 5.98 12.66 7 13 C5.68 13.33 4.36 13.66 3 14 C1.35 9.71 -0.3 5.42 -2 1 C-1.34 0.67 -0.68 0.34 0 0 Z " fill="#F5BE0F" transform="translate(297,657)"/>
<path d="M0 0 C0.99 0 1.98 0 3 0 C2.34 5.28 1.68 10.56 1 16 C0.67 16 0.34 16 0 16 C-0.19504458 13.89651926 -0.38078496 11.79217415 -0.5625 9.6875 C-0.66691406 8.51574219 -0.77132813 7.34398437 -0.87890625 6.13671875 C-1 3 -1 3 0 0 Z " fill="#F6C115" transform="translate(276,576)"/>
<path d="M0 0 C0.66 0.33 1.32 0.66 2 1 C-0.24099569 2.22835325 -2.4901378 3.43229495 -4.75 4.625 C-5.70132812 5.1509375 -5.70132812 5.1509375 -6.671875 5.6875 C-8.546875 6.6640625 -8.546875 6.6640625 -12 8 C-14.453125 7.2109375 -14.453125 7.2109375 -16 6 C-14.08745915 5.36248638 -12.17109367 4.73625708 -10.25 4.125 C-7.81704154 3.28282207 -5.5813245 2.3761668 -3.25 1.3125 C-2.1775 0.879375 -1.105 0.44625 0 0 Z " fill="#E2642E" transform="translate(516,344)"/>
<path d="M0 0 C4.38332057 0.82187261 8.67940177 1.90154282 13 3 C9.64672361 5.23551759 9.09256343 5.17283528 5.3125 4.625 C4.10013672 4.45871094 4.10013672 4.45871094 2.86328125 4.2890625 C1.94095703 4.14597656 1.94095703 4.14597656 1 4 C0.67 2.68 0.34 1.36 0 0 Z " fill="#F7F1EB" transform="translate(568,984)"/>
<path d="M0 0 C4.2742558 1.5830577 6.26531794 4.50568404 9 8 C8.34 8.66 7.68 9.32 7 10 C5.29115995 8.37660195 3.62553283 6.70680947 2 5 C2 4.34 2 3.68 2 3 C1.01 2.67 0.02 2.34 -1 2 C-0.67 1.34 -0.34 0.68 0 0 Z " fill="#FAF8EC" transform="translate(362,765)"/>
<path d="M0 0 C0.33 0.99 0.66 1.98 1 3 C-0.43359375 5.48046875 -0.43359375 5.48046875 -2.4375 8.1875 C-3.09621094 9.08855469 -3.75492188 9.98960937 -4.43359375 10.91796875 C-5.20896484 11.94857422 -5.20896484 11.94857422 -6 13 C-6.33 12.34 -6.66 11.68 -7 11 C-6.00664799 9.32936253 -5.00568242 7.66324401 -4 6 C-3.29329272 3.30745009 -3.29329272 3.30745009 -3 1 C-2.01 0.67 -1.02 0.34 0 0 Z " fill="#E06B33" transform="translate(880,705)"/>
<path d="M0 0 C0.99 0 1.98 0 3 0 C4.06652192 2.30368736 5.06421005 4.64018187 6 7 C5.67 7.66 5.34 8.32 5 9 C4.34 9 3.68 9 3 9 C2.67 9.66 2.34 10.32 2 11 C1.77213542 9.01432292 1.54427083 7.02864583 1.31640625 5.04296875 C1.02829265 2.80603607 1.02829265 2.80603607 0 0 Z " fill="#FAFAEF" transform="translate(304,684)"/>
<path d="M0 0 C0.99 0.66 1.98 1.32 3 2 C1.60667426 5.36720387 0.0210714 6.9859524 -3 9 C-3 6.12862585 -2.72886734 3.7696959 -2 1 C-1.34 0.67 -0.68 0.34 0 0 Z " fill="#F8F2ED" transform="translate(755,675)"/>
<path d="M0 0 C0.66 0.33 1.32 0.66 2 1 C0.39612733 2.1254191 -1.20810916 3.25031972 -2.8125 4.375 C-3.70582031 5.00148438 -4.59914063 5.62796875 -5.51953125 6.2734375 C-7.33267878 7.53550239 -9.16188211 8.77458808 -11 10 C-11.99 9.67 -12.98 9.34 -14 9 C-12.35 8.34 -10.7 7.68 -9 7 C-9 6.34 -9 5.68 -9 5 C-7.54735962 4.1361871 -6.0876837 3.28419546 -4.625 2.4375 C-3.81289063 1.96183594 -3.00078125 1.48617187 -2.1640625 0.99609375 C-1.44992187 0.66738281 -0.73578125 0.33867188 0 0 Z " fill="#804233" transform="translate(551,577)"/>
<path d="M0 0 C0.99 0.33 1.98 0.66 3 1 C2.71517632 2.41805831 2.42181856 3.83440379 2.125 5.25 C1.88136719 6.43335938 1.88136719 6.43335938 1.6328125 7.640625 C1.00849925 9.96831144 0.15161458 11.89031952 -1 14 C-1.625 10.625 -1.625 10.625 -2 7 C-1.34 6.34 -0.68 5.68 0 5 C0.16687448 2.41645782 0.16687448 2.41645782 0 0 Z " fill="#FAF9EF" transform="translate(284,438)"/>
<path d="M0 0 C0.33 0.66 0.66 1.32 1 2 C0.328125 3.953125 0.328125 3.953125 -0.75 6.25 C-1.12125 7.04792969 -1.4925 7.84585937 -1.875 8.66796875 C-3.22195704 11.46009845 -4.58537045 14.24147237 -6 17 C-7 14 -7 14 -5.56640625 10.64453125 C-4.90851193 9.3619696 -4.24010257 8.08475943 -3.5625 6.8125 C-3.22412109 6.15830078 -2.88574219 5.50410156 -2.53710938 4.83007812 C-1.70030902 3.21540701 -0.85130254 1.60707237 0 0 Z " fill="#7E4030" transform="translate(584,414)"/>
<path d="M0 0 C0.66 0.33 1.32 0.66 2 1 C-0.14800843 3.36280927 -2.16680467 4.58340234 -5 6 C-5.33 6.66 -5.66 7.32 -6 8 C-7.98 8 -9.96 8 -12 8 C-8.20182235 4.77730382 -4.42608146 2.25479622 0 0 Z " fill="#F9F5E4" transform="translate(504,351)"/>
<path d="M0 0 C0.33 0 0.66 0 1 0 C1.24687966 2.9625559 1.21079991 4.62056017 -0.25 7.25 C-2.18001672 9.18001672 -3.33246269 9.63206382 -6 10 C-4.34784004 6.42032008 -2.26875648 3.22017048 0 0 Z " fill="#F4C01B" transform="translate(331,350)"/>
<path d="M0 0 C0.66 0.33 1.32 0.66 2 1 C0.92643323 2.15498897 -0.15929788 3.29867867 -1.25 4.4375 C-1.85328125 5.07558594 -2.4565625 5.71367188 -3.078125 6.37109375 C-5.10048016 8.08516306 -6.41270605 8.59358878 -9 9 C-8.3125 6.625 -8.3125 6.625 -7 4 C-4.5 2.8125 -4.5 2.8125 -2 2 C-1.34 1.34 -0.68 0.68 0 0 Z " fill="#E26931" transform="translate(661,961)"/>
<path d="M0 0 C0.66 1.32 1.32 2.64 2 4 C1.67 4.99 1.34 5.98 1 7 C-1.31 7.33 -3.62 7.66 -6 8 C-4.02 5.36 -2.04 2.72 0 0 Z " fill="#F7F3ED" transform="translate(734,880)"/>
<path d="M0 0 C0 1.66666667 0 3.33333333 0 5 C-0.66 5 -1.32 5 -2 5 C-2.103125 5.61875 -2.20625 6.2375 -2.3125 6.875 C-3 9 -3 9 -6 11 C-6.66 10.34 -7.32 9.68 -8 9 C-5.36 6.03 -2.72 3.06 0 0 Z " fill="#F6EEE6" transform="translate(754,857)"/>
<path d="M0 0 C0.66 0 1.32 0 2 0 C1.60196439 2.88575819 1.20990931 3.82189513 -1.0625 5.75 C-1.701875 6.1625 -2.34125 6.575 -3 7 C-3.99 6.34 -4.98 5.68 -6 5 C-6.99 5.495 -6.99 5.495 -8 6 C-7.34 4.68 -6.68 3.36 -6 2 C-4.35 2.33 -2.7 2.66 -1 3 C-0.67 2.01 -0.34 1.02 0 0 Z " fill="#E26D35" transform="translate(786,816)"/>
<path d="M0 0 C1.98 0 3.96 0 6 0 C6 2.64 6 5.28 6 8 C1.125 3.375 1.125 3.375 0 0 Z " fill="#F5C211" transform="translate(369,769)"/>
<path d="M0 0 C2.1875 0.3125 2.1875 0.3125 4 1 C3.67 2.98 3.34 4.96 3 7 C1.02 5.68 -0.96 4.36 -3 3 C-1.75 1.4375 -1.75 1.4375 0 0 Z " fill="#FAF7E6" transform="translate(476,704)"/>
<path d="M0 0 C0.66 0.33 1.32 0.66 2 1 C1.01 2.98 0.02 4.96 -1 7 C-1.5775 6.814375 -2.155 6.62875 -2.75 6.4375 C-5.20692525 5.95976454 -6.64397534 6.24270636 -9 7 C-6.03716687 4.61327331 -3.05729491 2.2646629 0 0 Z " fill="#F1EDE9" transform="translate(544,583)"/>
<path d="M0 0 C1.32 0 2.64 0 4 0 C4.66 0.99 5.32 1.98 6 3 C5.67 4.32 5.34 5.64 5 7 C2.69 5.35 0.38 3.7 -2 2 C-1.34 1.34 -0.68 0.68 0 0 Z " fill="#F5F1F0" transform="translate(666,545)"/>
<path d="M0 0 C4.2742558 1.5830577 6.26531794 4.50568404 9 8 C5.41087588 8 4.89142971 7.33563446 2.3125 5 C1.68988281 4.443125 1.06726563 3.88625 0.42578125 3.3125 C-0.04472656 2.879375 -0.51523437 2.44625 -1 2 C-0.67 1.34 -0.34 0.68 0 0 Z " fill="#EFEBE8" transform="translate(648,530)"/>
<path d="M0 0 C2.31 1.98 4.62 3.96 7 6 C6.01 6.495 6.01 6.495 5 7 C5 7.66 5 8.32 5 9 C3.68 8.34 2.36 7.68 1 7 C1 6.34 1 5.68 1 5 C0.68197057 3.33034549 0.35015049 1.66321482 0 0 Z " fill="#F8F3EE" transform="translate(752,394)"/>
<path d="M0 0 C-3 2 -3 2 -5 2 C-5 2.66 -5 3.32 -5 4 C-6.98 4.33 -8.96 4.66 -11 5 C-11.33 4.34 -11.66 3.68 -12 3 C-10.5682384 2.30062798 -9.12932968 1.61587282 -7.6875 0.9375 C-6.48673828 0.36322266 -6.48673828 0.36322266 -5.26171875 -0.22265625 C-3 -1 -3 -1 0 0 Z " fill="#F7EEE7" transform="translate(520,346)"/>
<path d="M0 0 C0.66 0.66 1.32 1.32 2 2 C0.02 4.64 -1.96 7.28 -4 10 C-4.66 9.67 -5.32 9.34 -6 9 C-6 8.34 -6 7.68 -6 7 C-5.34 7 -4.68 7 -4 7 C-3.896875 6.401875 -3.79375 5.80375 -3.6875 5.1875 C-2.91123545 2.71756736 -1.92911079 1.67748765 0 0 Z " fill="#F9F7EC" transform="translate(343,330)"/>
<path d="M0 0 C2.64752004 2.57784846 4.94432065 4.91648098 7 8 C5.02 8 3.04 8 1 8 C0.67 5.36 0.34 2.72 0 0 Z " fill="#F3C318" transform="translate(437,672)"/>
<path d="M0 0 C5.97976619 5.82643885 5.97976619 5.82643885 6.0625 10.625 C6.041875 11.73875 6.02125 12.8525 6 14 C2.59801074 9.95001278 0 5.36373351 0 0 Z " fill="#E0672E" transform="translate(791,448)"/>
<path d="M0 0 C0.33 0 0.66 0 1 0 C1.38281159 5.23175837 0.21854707 8.37802694 -2 13 C-2.66 13 -3.32 13 -4 13 C-3.52511102 11.01980257 -3.04497141 9.04086365 -2.5625 7.0625 C-2.29566406 5.96035156 -2.02882813 4.85820312 -1.75390625 3.72265625 C-1 1 -1 1 0 0 Z " fill="#F3BE17" transform="translate(287,441)"/>
<path d="M0 0 C1.65 0 3.3 0 5 0 C4.01 3.3 3.02 6.6 2 10 C1.34 10 0.68 10 0 10 C0.66 8.02 1.32 6.04 2 4 C1.01 4 0.02 4 -1 4 C-0.67 2.68 -0.34 1.36 0 0 Z " fill="#F0ECEA" transform="translate(571,432)"/>
<path d="M0 0 C1.32 0 2.64 0 4 0 C4.33 1.32 4.66 2.64 5 4 C5.66 4 6.32 4 7 4 C7.33 5.32 7.66 6.64 8 8 C6.0625 7.1875 6.0625 7.1875 4 6 C3.67 5.01 3.34 4.02 3 3 C2.01 2.67 1.02 2.34 0 2 C0 1.34 0 0.68 0 0 Z " fill="#F9C715" transform="translate(400,400)"/>
<path d="M0 0 C0.66 1.32 1.32 2.64 2 4 C0.13091744 6.80362384 -1.87961365 9.38485683 -4 12 C-4.33 11.34 -4.66 10.68 -5 10 C-4.00390625 7.6171875 -4.00390625 7.6171875 -2.5625 4.875 C-1.85287109 3.50988281 -1.85287109 3.50988281 -1.12890625 2.1171875 C-0.75636719 1.41851562 -0.38382812 0.71984375 0 0 Z " fill="#F4BE18" transform="translate(308,388)"/>
<path d="M0 0 C0.99 0.33 1.98 0.66 3 1 C3.3721042 2.32303717 3.70630173 3.65737935 4 5 C4.66 5.33 5.32 5.66 6 6 C5.67 7.65 5.34 9.3 5 11 C2.47650757 7.87567603 0.72743854 4.61939504 -1 1 C-0.67 0.67 -0.34 0.34 0 0 Z " fill="#F7F0EA" transform="translate(885,373)"/>
<path d="M0 0 C0.99 0.66 1.98 1.32 3 2 C3 2.99 3 3.98 3 5 C3.66 5.66 4.32 6.32 5 7 C0.68607774 6.5206753 -1.16569547 5.2542015 -4 2 C-2.68 1.34 -1.36 0.68 0 0 Z " fill="#F7F3EF" transform="translate(812,282)"/>
<path d="M0 0 C3.70503641 0.60334309 5.85968148 2.22474237 8.75 4.5625 C9.94882812 5.52349609 9.94882812 5.52349609 11.171875 6.50390625 C12.07679688 7.24447266 12.07679688 7.24447266 13 8 C12.01 8.66 11.02 9.32 10 10 C8.9171875 8.63875 8.9171875 8.63875 7.8125 7.25 C5.47347206 4.4298006 2.94933345 2.19093342 0 0 Z " fill="#E1692F" transform="translate(787,270)"/>
<path d="M0 0 C1.98 1.65 3.96 3.3 6 5 C4.02 5.99 4.02 5.99 2 7 C2 6.34 2 5.68 2 5 C1.01 5.33 0.02 5.66 -1 6 C-1.042721 4.33388095 -1.04063832 2.66617115 -1 1 C-0.67 0.67 -0.34 0.34 0 0 Z " fill="#F8F4E2" transform="translate(394,800)"/>
<path d="M0 0 C5 7.5 5 7.5 5 11 C4.01 11 3.02 11 2 11 C1.46770674 9.73392393 0.94955456 8.46189588 0.4375 7.1875 C0.14746094 6.47980469 -0.14257812 5.77210938 -0.44140625 5.04296875 C-1 3 -1 3 0 0 Z " fill="#F9F3D9" transform="translate(299,668)"/>
<path d="M0 0 C1.32 0.66 2.64 1.32 4 2 C1.36 4.31 -1.28 6.62 -4 9 C-4.33 8.01 -4.66 7.02 -5 6 C-3.59554165 3.7363436 -1.8032087 1.9791315 0 0 Z " fill="#F0EDEB" transform="translate(556,524)"/>
<path d="M0 0 C2.475 0.495 2.475 0.495 5 1 C5 1.99 5 2.98 5 4 C5.66 4 6.32 4 7 4 C7.33 5.32 7.66 6.64 8 8 C6.68 7.34 5.36 6.68 4 6 C4 5.34 4 4.68 4 4 C2.68 3.34 1.36 2.68 0 2 C0 1.34 0 0.68 0 0 Z " fill="#F9C814" transform="translate(392,392)"/>
<path d="M0 0 C1.32 0 2.64 0 4 0 C6.29013653 3.4352048 6.17842973 4.985331 6 9 C3.59927045 6.11912454 1.52708963 3.43595166 0 0 Z M5 1 C7 2 7 2 7 2 Z " fill="#F9F2ED" transform="translate(873,356)"/>
<path d="M0 0 C0.33 1.32 0.66 2.64 1 4 C-0.98 4.99 -0.98 4.99 -3 6 C-4.32 4.35 -5.64 2.7 -7 1 C-3.535 0.505 -3.535 0.505 0 0 Z " fill="#F7EFE8" transform="translate(831,297)"/>
<path d="M0 0 C0.66 0.33 1.32 0.66 2 1 C-1.96 4.3 -5.92 7.6 -10 11 C-10 10.01 -10 9.02 -10 8 C-7.8125 5.95703125 -7.8125 5.95703125 -5 3.8125 C-4.071875 3.09707031 -3.14375 2.38164062 -2.1875 1.64453125 C-1.1046875 0.83048828 -1.1046875 0.83048828 0 0 Z " fill="#E0672F" transform="translate(401,277)"/>
<path d="M0 0 C-4.45629936 2.97086624 -7.67935442 3.12092376 -13 3 C-10.27144005 -2.45711989 -5.0547008 -0.84245013 0 0 Z " fill="#E46C36" transform="translate(677,219)"/>
<path d="M0 0 C1 3 1 3 1 6 C-0.32 5.67 -1.64 5.34 -3 5 C-1.125 1.125 -1.125 1.125 0 0 Z M-5 5 C-4.34 5.33 -3.68 5.66 -3 6 C-4.32 7.32 -5.64 8.64 -7 10 C-7.66 9.67 -8.32 9.34 -9 9 C-7.68 7.68 -6.36 6.36 -5 5 Z " fill="#F4E4DB" transform="translate(670,954)"/>
<path d="M0 0 C2.475 0.495 2.475 0.495 5 1 C6 4 6 4 5.0625 6.1875 C4.5365625 7.0846875 4.5365625 7.0846875 4 8 C0 3.375 0 3.375 0 0 Z " fill="#F3BF0F" transform="translate(473,888)"/>
<path d="M0 0 C3.25543229 0.34879632 4.01873107 1.02133261 6.25 3.5625 C6.8275 4.366875 7.405 5.17125 8 6 C4 6 4 6 1.75 4.125 C0 2 0 2 0 0 Z " fill="#FAF9EC" transform="translate(448,865)"/>
<path d="M0 0 C2.475 0.495 2.475 0.495 5 1 C5.33 1.99 5.66 2.98 6 4 C7.32 3.67 8.64 3.34 10 3 C9.67 3.99 9.34 4.98 9 6 C6.03 5.01 3.06 4.02 0 3 C0 2.01 0 1.02 0 0 Z " fill="#F9F5DE" transform="translate(515,729)"/>
<path d="M0 0 C0.66 0 1.32 0 2 0 C2.66 2.31 3.32 4.62 4 7 C1.69 6.01 -0.62 5.02 -3 4 C-2 2 -2 2 0 0 Z " fill="#F9F7E4" transform="translate(291,651)"/>
<path d="M0 0 C0.33 0 0.66 0 1 0 C1 2.97 1 5.94 1 9 C-0.32 9 -1.64 9 -3 9 C-2.44271087 5.65626525 -1.64826111 2.96687001 0 0 Z " fill="#F5C224" transform="translate(301,402)"/>
<path d="M0 0 C2.31 1.98 4.62 3.96 7 6 C6.01 6.33 5.02 6.66 4 7 C3.67 6.67 3.34 6.34 3 6 C2.34 6.66 1.68 7.32 1 8 C0.40267181 5.23735711 0 2.83967231 0 0 Z " fill="#F4F3EF" transform="translate(739,381)"/>
<path d="M0 0 C0 3.96130371 -1.34877125 4.82914401 -4 7.6875 C-4.7425 8.49574219 -5.485 9.30398438 -6.25 10.13671875 C-6.8275 10.75160156 -7.405 11.36648438 -8 12 C-8 8.47967572 -7.29648649 7.5614657 -5 5 C-4.34 5 -3.68 5 -3 5 C-2.690625 4.360625 -2.38125 3.72125 -2.0625 3.0625 C-1 1 -1 1 0 0 Z " fill="#E0662D" transform="translate(683,937)"/>
<path d="M0 0 C0.33 0.66 0.66 1.32 1 2 C-1.31 4.64 -3.62 7.28 -6 10 C-6 8 -6 6 -6 4 C-4.68 4 -3.36 4 -2 4 C-1.34 2.68 -0.68 1.36 0 0 Z " fill="#E16930" transform="translate(752,857)"/>
<path d="M0 0 C1.32 1.32 2.64 2.64 4 4 C3.67 4.66 3.34 5.32 3 6 C1.02 6 -0.96 6 -3 6 C-1.125 1.125 -1.125 1.125 0 0 Z " fill="#874B3C" transform="translate(711,594)"/>
<path d="M0 0 C0.66 0 1.32 0 2 0 C3.54296875 1.86328125 3.54296875 1.86328125 5.1875 4.3125 C5.73792969 5.11300781 6.28835938 5.91351563 6.85546875 6.73828125 C7.23316406 7.48464844 7.61085938 8.23101562 8 9 C7.67 9.99 7.34 10.98 7 12 C5.83061933 10.18924982 4.66456267 8.37635257 3.5 6.5625 C2.8503125 5.55316406 2.200625 4.54382813 1.53125 3.50390625 C0 1 0 1 0 0 Z " fill="#DE6F39" transform="translate(776,423)"/>
<path d="M0 0 C3.36179774 1.44077046 5.59156268 3.24750021 8 6 C8 6.66 8 7.32 8 8 C6.0625 7.1875 6.0625 7.1875 4 6 C3.67 5.01 3.34 4.02 3 3 C2.01 2.67 1.02 2.34 0 2 C0 1.34 0 0.68 0 0 Z " fill="#F9C715" transform="translate(384,384)"/>
<path d="M0 0 C3.82097239 0.53069061 6.06171403 1.49701566 9 4 C7.824375 3.9690625 7.824375 3.9690625 6.625 3.9375 C4.01885039 3.81315937 4.01885039 3.81315937 2 5 C1.34 4.34 0.68 3.68 0 3 C0 2.01 0 1.02 0 0 Z " fill="#F7F0EB" transform="translate(685,347)"/>
<path d="M0 0 C2.71928517 0.37507382 3.84218661 0.84218661 5.8125 2.8125 C7 5 7 5 6.57421875 7.13671875 C6.38472656 7.75160156 6.19523438 8.36648438 6 9 C4.99712471 7.68969568 3.99777175 6.37669473 3 5.0625 C2.443125 4.33160156 1.88625 3.60070312 1.3125 2.84765625 C0 1 0 1 0 0 Z " fill="#F7F5EE" transform="translate(856,332)"/>
<path d="M0 0 C0.33 0.99 0.66 1.98 1 3 C3.97 3 6.94 3 10 3 C9.67 3.66 9.34 4.32 9 5 C8.34 5 7.68 5 7 5 C6.67 5.66 6.34 6.32 6 7 C3.36 5.68 0.72 4.36 -2 3 C-1.34 2.67 -0.68 2.34 0 2 C0 1.34 0 0.68 0 0 Z " fill="#F6F0E9" transform="translate(756,246)"/>
<path d="M0 0 C1.32 0.66 2.64 1.32 4 2 C4 2.99 4 3.98 4 5 C4.66 5 5.32 5 6 5 C6.33 6.65 6.66 8.3 7 10 C4.06799526 7.14723863 1.35684596 4.34920216 -1 1 C-0.67 0.67 -0.34 0.34 0 0 Z " fill="#F5BC14" transform="translate(504,924)"/>
<path d="M0 0 C1.98 1.65 3.96 3.3 6 5 C2.25 7 2.25 7 0 7 C0 4.69 0 2.38 0 0 Z " fill="#F8F6E7" transform="translate(457,873)"/>
<path d="M0 0 C0.66 0.33 1.32 0.66 2 1 C2 1.99 2 2.98 2 4 C2.99 4 3.98 4 5 4 C5 5.65 5 7.3 5 9 C2.35247996 6.42215154 0.05567935 4.08351902 -2 1 C-1.34 0.67 -0.68 0.34 0 0 Z " fill="#F5BF16" transform="translate(402,805)"/>
<path d="M0 0 C1.89213369 2.38573379 3.02391783 4.07175348 4 7 C3.0625 9.1875 3.0625 9.1875 2 11 C-0.5986701 8.4013299 -0.63249261 6.60157242 -1 3 C-0.67 2.01 -0.34 1.02 0 0 Z " fill="#E97D3A" transform="translate(699,795)"/>
<path d="M0 0 C3.02990095 1.71967351 5.76327296 3.29238306 8 6 C8 6.66 8 7.32 8 8 C4.11137013 6.73882275 2.10624401 5.54735833 0 2 C0 1.34 0 0.68 0 0 Z " fill="#E98452" transform="translate(784,784)"/>
<path d="M0 0 C2.64752004 2.57784846 4.94432065 4.91648098 7 8 C4.03 7.505 4.03 7.505 1 7 C0.67 4.69 0.34 2.38 0 0 Z " fill="#F8F4DE" transform="translate(345,744)"/>
<path d="M0 0 C2.27521866 2.16687491 4.15794162 4.45620509 6 7 C5.01 7.33 4.02 7.66 3 8 C0.9375 6.25 0.9375 6.25 -1 4 C-0.75 1.75 -0.75 1.75 0 0 Z " fill="#F5F3F1" transform="translate(619,627)"/>
<path d="M0 0 C0.99 0.33 1.98 0.66 3 1 C3.33 1.99 3.66 2.98 4 4 C3.01 4 2.02 4 1 4 C0.67 4.99 0.34 5.98 0 7 C-0.66 6.67 -1.32 6.34 -2 6 C-1.125 1.125 -1.125 1.125 0 0 Z " fill="#874A3B" transform="translate(588,407)"/>
<path d="M0 0 C1.67542976 0.28604898 3.34385343 0.61781233 5 1 C2.63707344 3.52588702 1.33537489 4.88820837 -2 6 C-1.125 1.125 -1.125 1.125 0 0 Z " fill="#F4C117" transform="translate(475,365)"/>
<path d="M0 0 C1.5 1.375 1.5 1.375 3 3 C3 3.66 3 4.32 3 5 C1.1875 6.0625 1.1875 6.0625 -1 7 C-1.99 6.67 -2.98 6.34 -4 6 C-2.68 4.02 -1.36 2.04 0 0 Z " fill="#F6C21B" transform="translate(324,360)"/>
<path d="M0 0 C3.36179774 1.44077046 5.59156268 3.24750021 8 6 C8 6.66 8 7.32 8 8 C4.63820226 6.55922954 2.40843732 4.75249979 0 2 C0 1.34 0 0.68 0 0 Z " fill="#F9C715" transform="translate(360,360)"/>
<path d="M0 0 C0.66 0.66 1.32 1.32 2 2 C-0.31 4.31 -2.62 6.62 -5 9 C-5.33 8.01 -5.66 7.02 -6 6 C-5.34 6 -4.68 6 -4 6 C-4 5.01 -4 4.02 -4 3 C-2 1.3125 -2 1.3125 0 0 Z " fill="#F7EFE9" transform="translate(374,297)"/>
<path d="M0 0 C2 1 2 1 3 3 C1.02 3.99 -0.96 4.98 -3 6 C-3.66 5.01 -4.32 4.02 -5 3 C-2.625 1.4375 -2.625 1.4375 0 0 Z " fill="#F5F1E9" transform="translate(421,259)"/>
<path d="M0 0 C2.99324263 1.0975223 3.84610901 1.67682892 5.25 4.625 C5.4975 5.40875 5.745 6.1925 6 7 C4.35 6.67 2.7 6.34 1 6 C0.67 4.02 0.34 2.04 0 0 Z " fill="#F9F9F0" transform="translate(541,968)"/>
<path d="M0 0 C0.66 1.32 1.32 2.64 2 4 C0.68 5.65 -0.64 7.3 -2 9 C-2.6875 7.3125 -2.6875 7.3125 -3 5 C-1.5625 2.25 -1.5625 2.25 0 0 Z " fill="#FAF5F1" transform="translate(884,701)"/>
<path d="M0 0 C0 1.32 0 2.64 0 4 C-1.65 4.33 -3.3 4.66 -5 5 C-5.33 3.35 -5.66 1.7 -6 0 C-2.25 -1.125 -2.25 -1.125 0 0 Z " fill="#EFEBE8" transform="translate(576,665)"/>
<path d="M0 0 C0.66 0 1.32 0 2 0 C3.37432457 3.81756824 2.67975039 7.07255329 2 11 C-0.67927341 6.98108988 -0.15601248 4.75838077 0 0 Z " fill="#824332" transform="translate(580,610)"/>
<path d="M0 0 C2.475 0.99 2.475 0.99 5 2 C3.75 3.5625 3.75 3.5625 2 5 C-0.1875 4.6875 -0.1875 4.6875 -2 4 C-1.34 2.68 -0.68 1.36 0 0 Z " fill="#F2F0EF" transform="translate(515,602)"/>
<path d="M0 0 C0.99 0.33 1.98 0.66 3 1 C2.67 3.31 2.34 5.62 2 8 C0.68 6.35 -0.64 4.7 -2 3 C-1.34 2.01 -0.68 1.02 0 0 Z " fill="#F4F2EE" transform="translate(714,592)"/>
<path d="M0 0 C0.99 0 1.98 0 3 0 C1.25 5.75 1.25 5.75 -1 8 C-1.93065133 5.39417629 -2.14917407 4.35801776 -1.0625 1.75 C-0.711875 1.1725 -0.36125 0.595 0 0 Z " fill="#FAFAF0" transform="translate(299,400)"/>
<path d="M0 0 C3.02990095 1.71967351 5.76327296 3.29238306 8 6 C8 6.66 8 7.32 8 8 C4.63820226 6.55922954 2.40843732 4.75249979 0 2 C0 1.34 0 0.68 0 0 Z " fill="#F8C612" transform="translate(352,352)"/>
<path d="M0 0 C3.96 1.98 3.96 1.98 8 4 C6.02 4.99 6.02 4.99 4 6 C4 5.34 4 4.68 4 4 C3.01 4.33 2.02 4.66 1 5 C1 4.34 1 3.68 1 3 C0.34 2.67 -0.32 2.34 -1 2 C-0.67 1.34 -0.34 0.68 0 0 Z " fill="#FAF6EA" transform="translate(553,976)"/>
<path d="M0 0 C1.98 1.65 3.96 3.3 6 5 C5.34 5.66 4.68 6.32 4 7 C2.68 6.34 1.36 5.68 0 5 C0 3.35 0 1.7 0 0 Z " fill="#F8FAEF" transform="translate(534,961)"/>
<path d="M0 0 C2.4375 0.6875 2.4375 0.6875 5 2 C5.8125 4.625 5.8125 4.625 6 7 C3.95880212 5.38405168 1.95927063 3.7143618 0 2 C0 1.34 0 0.68 0 0 Z " fill="#F4C018" transform="translate(495,915)"/>
<path d="M0 0 C-0.33 0.99 -0.66 1.98 -1 3 C-1.99 3.33 -2.98 3.66 -4 4 C-4.33 4.66 -4.66 5.32 -5 6 C-5.66 6 -6.32 6 -7 6 C-7 5.34 -7 4.68 -7 4 C-7.66 3.67 -8.32 3.34 -9 3 C-2.25 0 -2.25 0 0 0 Z " fill="#F4C422" transform="translate(695,727)"/>
<path d="M0 0 C0.66 0.99 1.32 1.98 2 3 C0.95125002 5.62187494 0.35068687 6.79371361 -2.125 8.25 C-2.74375 8.4975 -3.3625 8.745 -4 9 C-2.80100302 5.9168649 -1.52299523 2.93720508 0 0 Z " fill="#F5EBE3" transform="translate(893,684)"/>
<path d="M0 0 C1.20076172 0.06960938 1.20076172 0.06960938 2.42578125 0.140625 C3.23402344 0.17671875 4.04226563 0.2128125 4.875 0.25 C5.79732422 0.31960938 5.79732422 0.31960938 6.73828125 0.390625 C4.31697794 2.81192831 2.93716748 2.91903004 -0.38671875 3.515625 C-1.75183594 3.76699219 -1.75183594 3.76699219 -3.14453125 4.0234375 C-3.84320312 4.14460937 -4.541875 4.26578125 -5.26171875 4.390625 C-2.89519796 0.50003419 -2.89519796 0.50003419 0 0 Z " fill="#763525" transform="translate(550.26171875,667.609375)"/>
<path d="M0 0 C2.18975773 3.28463659 2.99806563 6.20696275 4 10 C2.68 9.34 1.36 8.68 0 8 C0 5.36 0 2.72 0 0 Z " fill="#F3C325" transform="translate(403,613)"/>
<path d="M0 0 C0 0.66 0 1.32 0 2 C-3.13498292 3.85776765 -5.37471432 4.20140476 -9 4 C-4.5 0 -4.5 0 0 0 Z " fill="#F0ECEA" transform="translate(509,609)"/>
<path d="M0 0 C0 3.58912412 -0.66436554 4.10857029 -3 6.6875 C-3.556875 7.31011719 -4.11375 7.93273437 -4.6875 8.57421875 C-5.120625 9.04472656 -5.55375 9.51523437 -6 10 C-6 6.41087588 -5.33563446 5.89142971 -3 3.3125 C-2.443125 2.68988281 -1.88625 2.06726563 -1.3125 1.42578125 C-0.879375 0.95527344 -0.44625 0.48476563 0 0 Z " fill="#7C4133" transform="translate(496,585)"/>
<path d="M0 0 C3.36720387 1.39332574 4.9859524 2.9789286 7 6 C4 6 4 6 1.3125 3.5 C0.549375 2.675 -0.21375 1.85 -1 1 C-0.67 0.67 -0.34 0.34 0 0 Z " fill="#F2EFEE" transform="translate(673,552)"/>
<path d="M0 0 C0.66 1.32 1.32 2.64 2 4 C1.01 5.32 0.02 6.64 -1 8 C-1.99 7.67 -2.98 7.34 -4 7 C-2.68 4.69 -1.36 2.38 0 0 Z " fill="#F8F4E3" transform="translate(419,431)"/>
<path d="M0 0 C2.475 0.99 2.475 0.99 5 2 C5 3.65 5 5.3 5 7 C4.01 6.34 3.02 5.68 2 5 C2 4.34 2 3.68 2 3 C1.01 2.67 0.02 2.34 -1 2 C-0.67 1.34 -0.34 0.68 0 0 Z " fill="#F7EAE1" transform="translate(834,306)"/>
<path d="M0 0 C0.99 0.66 1.98 1.32 3 2 C2.34 3.32 1.68 4.64 1 6 C0.01 5.67 -0.98 5.34 -2 5 C-1.34 3.35 -0.68 1.7 0 0 Z " fill="#FAF6E7" transform="translate(506,929)"/>
<path d="M0 0 C0.66 0.99 1.32 1.98 2 3 C-0.97 5.475 -0.97 5.475 -4 8 C-4.66 7.67 -5.32 7.34 -6 7 C-4.02 4.69 -2.04 2.38 0 0 Z " fill="#F5EDE6" transform="translate(766,843)"/>
<path d="M0 0 C0.66 0.33 1.32 0.66 2 1 C1.07038578 2.15224028 0.1309875 3.29659176 -0.8125 4.4375 C-1.59560547 5.39462891 -1.59560547 5.39462891 -2.39453125 6.37109375 C-4 8 -4 8 -7 9 C-5.44499019 5.18315774 -2.96404505 2.80804268 0 0 Z " fill="#E06529" transform="translate(758,678)"/>
<path d="M0 0 C1 3 1 3 0.0625 5.1875 C-0.4634375 6.0846875 -0.4634375 6.0846875 -1 7 C-4 3.25 -4 3.25 -4 1 C-2.68 0.67 -1.36 0.34 0 0 Z " fill="#F5C016" transform="translate(310,681)"/>
<path d="M0 0 C1.32 0.99 2.64 1.98 4 3 C2.35 4.32 0.7 5.64 -1 7 C-2 4 -2 4 -1.0625 1.8125 C-0.5365625 0.9153125 -0.5365625 0.9153125 0 0 Z " fill="#F5F3F1" transform="translate(546,664)"/>
<path d="M0 0 C4.21878192 -0.19622241 7.17010894 0.19769832 11 2 C11 2.33 11 2.66 11 3 C9.35333797 2.8864371 7.70763918 2.75882619 6.0625 2.625 C5.14597656 2.55539062 4.22945312 2.48578125 3.28515625 2.4140625 C2.15400391 2.20910156 2.15400391 2.20910156 1 2 C0.67 1.34 0.34 0.68 0 0 Z " fill="#844837" transform="translate(621,662)"/>
<path d="M0 0 C0.66 0 1.32 0 2 0 C2 0.66 2 1.32 2 2 C2.66 2.33 3.32 2.66 4 3 C2.02 4.32 0.04 5.64 -2 7 C-1.125 2.25 -1.125 2.25 0 0 Z " fill="#E46D38" transform="translate(784,640)"/>
<path d="M0 0 C-5.5 4 -5.5 4 -10 4 C-9.67 3.01 -9.34 2.02 -9 1 C-2.63157895 -1.31578947 -2.63157895 -1.31578947 0 0 Z " fill="#EAE4DF" transform="translate(493,619)"/>
<path d="M0 0 C2.31 0.33 4.62 0.66 7 1 C7 1.99 7 2.98 7 4 C7.66 4.33 8.32 4.66 9 5 C8.01 5.495 8.01 5.495 7 6 C5.83054208 5.19152271 4.66449539 4.37810888 3.5 3.5625 C2.8503125 3.11003906 2.200625 2.65757812 1.53125 2.19140625 C1.0259375 1.79824219 0.520625 1.40507813 0 1 C0 0.67 0 0.34 0 0 Z " fill="#834636" transform="translate(654,581)"/>
<path d="M0 0 C1.32 0 2.64 0 4 0 C4 0.66 4 1.32 4 2 C3.01 2.495 3.01 2.495 2 3 C2 3.99 2 4.98 2 6 C1.01 6 0.02 6 -1 6 C-1.33 5.01 -1.66 4.02 -2 3 C-1.34 2.01 -0.68 1.02 0 0 Z " fill="#F8F8F7" transform="translate(612,401)"/>
<path d="M0 0 C2.475 0.99 2.475 0.99 5 2 C4.67 3.32 4.34 4.64 4 6 C3.67 5.67 3.34 5.34 3 5 C2.34 5.66 1.68 6.32 1 7 C-0.0625 4.625 -0.0625 4.625 -1 2 C-0.67 1.34 -0.34 0.68 0 0 Z " fill="#F7FAF6" transform="translate(745,389)"/>
<path d="M0 0 C1.2065625 0.0309375 1.2065625 0.0309375 2.4375 0.0625 C-2.3125 4.9375 -2.3125 4.9375 -4.5625 6.0625 C-3.48963568 0.08511307 -3.48963568 0.08511307 0 0 Z " fill="#F2C119" transform="translate(470.5625,370.9375)"/>
<path d="M0 0 C1.98 0.99 3.96 1.98 6 3 C5.34 3.66 4.68 4.32 4 5 C1.4375 4.75 1.4375 4.75 -1 4 C-1.33 3.34 -1.66 2.68 -2 2 C-1.34 2 -0.68 2 0 2 C0 1.34 0 0.68 0 0 Z " fill="#F8EFE8" transform="translate(699,353)"/>
<path d="M0 0 C1.65 0.33 3.3 0.66 5 1 C3.37660195 2.70884005 1.70680947 4.37446717 0 6 C-0.66 6 -1.32 6 -2 6 C-1.34 4.02 -0.68 2.04 0 0 Z " fill="#F7EFE8" transform="translate(400,273)"/>
<path d="M0 0 C0 0.99 0 1.98 0 3 C-2.31 4.32 -4.62 5.64 -7 7 C-7 6.01 -7 5.02 -7 4 C-4.69 2.68 -2.38 1.36 0 0 Z " fill="#E26B30" transform="translate(424,261)"/>
<path d="M0 0 C0.53625 0.226875 1.0725 0.45375 1.625 0.6875 C-1.375 2.6875 -1.375 2.6875 -5.375 2.6875 C-5.705 3.3475 -6.035 4.0075 -6.375 4.6875 C-7.035 4.0275 -7.695 3.3675 -8.375 2.6875 C-2.95961538 -0.38942308 -2.95961538 -0.38942308 0 0 Z " fill="#E36C38" transform="translate(490.375,229.3125)"/>
<path d="M0 0 C0.66 0.99 1.32 1.98 2 3 C0.1875 4.5625 0.1875 4.5625 -2 6 C-2.99 5.67 -3.98 5.34 -5 5 C-3.35 3.35 -1.7 1.7 0 0 Z " fill="#F7EEE7" transform="translate(654,969)"/>
<path d="M0 0 C1 3 1 3 1 5 C-0.65 5 -2.3 5 -4 5 C-4 4.01 -4 3.02 -4 2 C-2.68 1.34 -1.36 0.68 0 0 Z " fill="#F5F3F0" transform="translate(663,963)"/>
<path d="M0 0 C2.5 2.3125 2.5 2.3125 5 5 C5 5.99 5 6.98 5 8 C2.5 6.25 2.5 6.25 0 4 C0 2.68 0 1.36 0 0 Z " fill="#FAF5E4" transform="translate(469,886)"/>
<path d="M0 0 C4.1424367 1.38081223 5.32203099 3.59825558 8 7 C5 7 5 7 2.3125 4.625 C0 2 0 2 0 0 Z " fill="#EA8757" transform="translate(768,768)"/>
<path d="M0 0 C3.72617422 1.24205807 5.39291457 3.1110675 8 6 C8 6.66 8 7.32 8 8 C4.63820226 6.55922954 2.40843732 4.75249979 0 2 C0 1.34 0 0.68 0 0 Z " fill="#EA8455" transform="translate(760,760)"/>
<path d="M0 0 C3.72617422 1.24205807 5.39291457 3.1110675 8 6 C8 6.66 8 7.32 8 8 C4.63820226 6.55922954 2.40843732 4.75249979 0 2 C0 1.34 0 0.68 0 0 Z " fill="#EA8654" transform="translate(752,752)"/>
<path d="M0 0 C2.5 1.375 2.5 1.375 5 3 C5 3.66 5 4.32 5 5 C5.99 5.33 6.98 5.66 8 6 C8 6.66 8 7.32 8 8 C4.63820226 6.55922954 2.40843732 4.75249979 0 2 C0 1.34 0 0.68 0 0 Z " fill="#EA8553" transform="translate(744,744)"/>
<path d="M0 0 C1.65 0.33 3.3 0.66 5 1 C1.25 4.875 1.25 4.875 -1 6 C-1.33 5.01 -1.66 4.02 -2 3 C-1.34 2.01 -0.68 1.02 0 0 Z " fill="#FAF5F1" transform="translate(862,734)"/>
<path d="M0 0 C2.0625 2.3125 2.0625 2.3125 4 5 C3.67 5.99 3.34 6.98 3 8 C2.01 7.34 1.02 6.68 0 6 C-0.1875 2.875 -0.1875 2.875 0 0 Z " fill="#F9F6E3" transform="translate(322,712)"/>
<path d="M0 0 C2.0625 0.4375 2.0625 0.4375 4 1 C3.67 2.32 3.34 3.64 3 5 C2.01 4.67 1.02 4.34 0 4 C-0.33 3.01 -0.66 2.02 -1 1 C-0.67 0.67 -0.34 0.34 0 0 Z " fill="#F4C10F" transform="translate(321,707)"/>
<path d="M0 0 C1.65 0 3.3 0 5 0 C5.33 0.66 5.66 1.32 6 2 C5.01 2.99 4.02 3.98 3 5 C2.67 4.01 2.34 3.02 2 2 C1.01 2.33 0.02 2.66 -1 3 C-0.67 2.01 -0.34 1.02 0 0 Z " fill="#F8F6F1" transform="translate(762,664)"/>
<path d="M0 0 C0.99 0 1.98 0 3 0 C2.34 3.3 1.68 6.6 1 10 C0.67 10 0.34 10 0 10 C-1.125 3.375 -1.125 3.375 0 0 Z " fill="#F8C212" transform="translate(395,595)"/>
<path d="M0 0 C0.99 0.495 0.99 0.495 2 1 C2.625 3.5625 2.625 3.5625 3 6 C3.66 6 4.32 6 5 6 C5 6.66 5 7.32 5 8 C4.34 8 3.68 8 3 8 C2.67 8.66 2.34 9.32 2 10 C1.34 6.7 0.68 3.4 0 0 Z " fill="#FAF2D6" transform="translate(394,582)"/>
<path d="M0 0 C2.475 0.99 2.475 0.99 5 2 C3.68 3.32 2.36 4.64 1 6 C0.34 5.34 -0.32 4.68 -1 4 C-1 3 -1 3 0 0 Z " fill="#EFECEA" transform="translate(530,545)"/>
<path d="M0 0 C1.42944945 2.35438733 2.08661261 3.48032433 1.625 6.25 C1.41875 6.8275 1.2125 7.405 1 8 C0.01 7.34 -0.98 6.68 -2 6 C-1.125 1.125 -1.125 1.125 0 0 Z " fill="#F8EEE5" transform="translate(806,498)"/>
<path d="M0 0 C0.66 0.66 1.32 1.32 2 2 C2.66 1.34 3.32 0.68 4 0 C4 2.31 4 4.62 4 7 C3.01 6.67 2.02 6.34 1 6 C0.67 4.02 0.34 2.04 0 0 Z " fill="#E66C35" transform="translate(921,494)"/>
<path d="M0 0 C0.66 0.99 1.32 1.98 2 3 C1.34 3 0.68 3 0 3 C-0.33 4.98 -0.66 6.96 -1 9 C-1.99 8.67 -2.98 8.34 -4 8 C-2.68 5.36 -1.36 2.72 0 0 Z " fill="#F3BF19" transform="translate(313,378)"/>
<path d="M0 0 C2.5 1.3125 2.5 1.3125 5 3 C5 3.99 5 4.98 5 6 C2.525 5.01 2.525 5.01 0 4 C0 2.68 0 1.36 0 0 Z " fill="#F8F3ED" transform="translate(725,370)"/>
<path d="M0 0 C0.33 0.99 0.66 1.98 1 3 C-0.28788008 3.53012738 -1.58046678 4.0488329 -2.875 4.5625 C-3.95394531 4.99755859 -3.95394531 4.99755859 -5.0546875 5.44140625 C-7 6 -7 6 -9 5 C-6.03 3.35 -3.06 1.7 0 0 Z " fill="#E0632A" transform="translate(456,243)"/>
<path d="M0 0 C-1 2 -1 2 -4.0625 3.125 C-5.5165625 3.558125 -5.5165625 3.558125 -7 4 C-7.33 3.01 -7.66 2.02 -8 1 C-5.29120665 -0.35439668 -2.99066732 -0.06501451 0 0 Z " fill="#FAF6F2" transform="translate(489,228)"/>
<path d="M0 0 C1.35439668 2.70879335 1.06501451 5.00933268 1 8 C-0.65 6.68 -2.3 5.36 -4 4 C-2.68 2.68 -1.36 1.36 0 0 Z " fill="#F6F6F0" transform="translate(790,816)"/>
<path d="M0 0 C1.98 0.495 1.98 0.495 4 1 C3.67 2.32 3.34 3.64 3 5 C1.68 5 0.36 5 -1 5 C-1 4.34 -1 3.68 -1 3 C-0.34 3 0.32 3 1 3 C0.67 2.01 0.34 1.02 0 0 Z " fill="#F9F8ED" transform="translate(401,810)"/>
<path d="M0 0 C1.65 1.65 3.3 3.3 5 5 C4.34 5.66 3.68 6.32 3 7 C2.01 6.34 1.02 5.68 0 5 C-0.1875 2.375 -0.1875 2.375 0 0 Z " fill="#F8F5E5" transform="translate(375,778)"/>
<path d="M0 0 C0.33 0.66 0.66 1.32 1 2 C0.401875 2.268125 -0.19625 2.53625 -0.8125 2.8125 C-2.97224808 3.98493467 -4.35790256 5.19369282 -6 7 C-6.33 6.01 -6.66 5.02 -7 4 C-4.69 2.68 -2.38 1.36 0 0 Z " fill="#E0692D" transform="translate(729,706)"/>
<path d="M0 0 C0.99 1.32 1.98 2.64 3 4 C2.01 4.99 1.02 5.98 0 7 C-0.66 6.01 -1.32 5.02 -2 4 C-1.34 2.68 -0.68 1.36 0 0 Z " fill="#F8F8F3" transform="translate(795,608)"/>
<path d="M0 0 C0.66 0.33 1.32 0.66 2 1 C0.35 2.65 -1.3 4.3 -3 6 C-3.99 5.67 -4.98 5.34 -6 5 C-5.195625 4.360625 -4.39125 3.72125 -3.5625 3.0625 C-1.7249496 1.59396498 -1.7249496 1.59396498 0 0 Z " fill="#F1EDEC" transform="translate(532,591)"/>
<path d="M0 0 C0.98120464 3.05263664 0.98120464 4.94736336 0 8 C-0.99 7.34 -1.98 6.68 -3 6 C-2.01 4.02 -1.02 2.04 0 0 Z " fill="#F7F4E0" transform="translate(414,440)"/>
<path d="M0 0 C0.99 0.33 1.98 0.66 3 1 C1.25 5.875 1.25 5.875 -1 7 C-1.04254356 5.00045254 -1.04080783 2.99958364 -1 1 C-0.67 0.67 -0.34 0.34 0 0 Z " fill="#F5C113" transform="translate(421,422)"/>
<path d="M0 0 C5.875 4.625 5.875 4.625 7 8 C3.2047869 6.50902342 1.38957269 4.24299151 -1 1 C-0.67 0.67 -0.34 0.34 0 0 Z " fill="#7D402F" transform="translate(599,392)"/>
<path d="M0 0 C1.2065625 0.0309375 1.2065625 0.0309375 2.4375 0.0625 C2.4375 1.0525 2.4375 2.0425 2.4375 3.0625 C1.1175 3.3925 -0.2025 3.7225 -1.5625 4.0625 C-1.5625 3.4025 -1.5625 2.7425 -1.5625 2.0625 C-2.2225 1.7325 -2.8825 1.4025 -3.5625 1.0625 C-2.5625 0.0625 -2.5625 0.0625 0 0 Z " fill="#F9F6F3" transform="translate(510.5625,218.9375)"/>
</svg>
